<?xml version="1.0" encoding="UTF-8" standalone="no"?>
<svg
   xmlns:dc="http://purl.org/dc/elements/1.1/"
   xmlns:cc="http://creativecommons.org/ns#"
   xmlns:rdf="http://www.w3.org/1999/02/22-rdf-syntax-ns#"
   xmlns:svg="http://www.w3.org/2000/svg"
   xmlns="http://www.w3.org/2000/svg"
   xmlns:sodipodi="http://sodipodi.sourceforge.net/DTD/sodipodi-0.dtd"
   xmlns:inkscape="http://www.inkscape.org/namespaces/inkscape"
   inkscape:export-ydpi="90.000000"
   inkscape:export-xdpi="90.000000"
   width="736"
   height="544"
   id="svg11300"
   sodipodi:version="0.32"
   inkscape:version="1.0beta1 (fe3e306978, 2019-09-17)"
   sodipodi:docname="distributor-logo-manjaro.svg"
   inkscape:output_extension="org.inkscape.output.svg.inkscape"
   version="1.0"
   style="display:inline;enable-background:new"
   inkscape:export-filename="/home/sam/Pop-template.png">
  <title
     id="title3004">Pop Icon Theme Template</title>
  <sodipodi:namedview
     stroke="#ef2929"
     fill="#f57900"
     id="base"
     pagecolor="#6b6b6b"
     bordercolor="#000000"
     borderopacity="0.25490196"
     inkscape:pageopacity="0"
     inkscape:pageshadow="2"
     inkscape:zoom="1"
     inkscape:cx="141.04336"
     inkscape:cy="265.02458"
     inkscape:current-layer="layer7"
     showgrid="false"
     inkscape:grid-bbox="true"
     inkscape:document-units="px"
     inkscape:showpageshadow="false"
     inkscape:window-width="2560"
     inkscape:window-height="1376"
     inkscape:window-x="0"
     inkscape:window-y="27"
     width="400px"
     height="300px"
     inkscape:snap-nodes="true"
     inkscape:snap-bbox="true"
     gridtolerance="10000"
     inkscape:object-nodes="true"
     inkscape:snap-grids="true"
     showguides="true"
     inkscape:guide-bbox="true"
     inkscape:window-maximized="1"
     inkscape:bbox-paths="true"
     inkscape:snap-bbox-midpoints="true"
     inkscape:snap-global="true"
     inkscape:object-paths="true"
     inkscape:snap-intersection-paths="true"
     inkscape:snap-smooth-nodes="true"
     inkscape:document-rotation="0">
    <inkscape:grid
       spacingy="1"
       spacingx="1"
       id="grid5883"
       type="xygrid"
       enabled="true"
       visible="true"
       empspacing="4"
       snapvisiblegridlinesonly="true"
       originx="0"
       originy="0" />
    <inkscape:grid
       type="xygrid"
       id="grid11592"
       empspacing="2"
       visible="true"
       enabled="false"
       spacingx="0.5"
       spacingy="0.5"
       color="#ff0000"
       opacity="0.1254902"
       empcolor="#ff0000"
       empopacity="0.25098039"
       snapvisiblegridlinesonly="true"
       originx="0"
       originy="0" />
  </sodipodi:namedview>
  <defs
     id="defs3">
    <filter
       inkscape:collect="always"
       style="color-interpolation-filters:sRGB"
       id="filter4192"
       x="-0.026608696"
       width="1.0532174"
       y="-0.021857143"
       height="1.0437143">
      <feGaussianBlur
         inkscape:collect="always"
         stdDeviation="4.08"
         id="feGaussianBlur4194" />
    </filter>
  </defs>
  <metadata
     id="metadata4">
    <rdf:RDF>
      <cc:Work
         rdf:about="">
        <dc:format>image/svg+xml</dc:format>
        <dc:type
           rdf:resource="http://purl.org/dc/dcmitype/StillImage" />
        <dc:creator>
          <cc:Agent>
            <dc:title>Sam Hewitt</dc:title>
          </cc:Agent>
        </dc:creator>
        <dc:source />
        <cc:license
           rdf:resource="http://creativecommons.org/licenses/by-sa/3.0/" />
        <dc:title>Pop Icon Theme Template</dc:title>
        <dc:subject>
          <rdf:Bag />
        </dc:subject>
        <dc:date />
        <dc:rights>
          <cc:Agent>
            <dc:title />
          </cc:Agent>
        </dc:rights>
        <dc:publisher>
          <cc:Agent>
            <dc:title />
          </cc:Agent>
        </dc:publisher>
        <dc:identifier />
        <dc:relation />
        <dc:language />
        <dc:coverage />
        <dc:description />
        <dc:contributor>
          <cc:Agent>
            <dc:title />
          </cc:Agent>
        </dc:contributor>
      </cc:Work>
      <cc:Work
         rdf:about="">
        <dc:format>image/svg+xml</dc:format>
        <dc:type
           rdf:resource="http://purl.org/dc/dcmitype/StillImage" />
      </cc:Work>
      <cc:License
         rdf:about="http://creativecommons.org/licenses/by-sa/3.0/">
        <cc:permits
           rdf:resource="http://creativecommons.org/ns#Reproduction" />
        <cc:permits
           rdf:resource="http://creativecommons.org/ns#Distribution" />
        <cc:requires
           rdf:resource="http://creativecommons.org/ns#Notice" />
        <cc:requires
           rdf:resource="http://creativecommons.org/ns#Attribution" />
        <cc:permits
           rdf:resource="http://creativecommons.org/ns#DerivativeWorks" />
        <cc:requires
           rdf:resource="http://creativecommons.org/ns#ShareAlike" />
      </cc:License>
    </rdf:RDF>
  </metadata>
  <g
     style="display:inline"
     inkscape:groupmode="layer"
     inkscape:label="Icon"
     id="layer1"
     transform="translate(0,244)">
    <g
       style="display:none"
       inkscape:label="Baseplate"
       id="layer7"
       inkscape:groupmode="layer">
      <text
         y="337.74512"
         xml:space="preserve"
         x="15.006836"
         style="font-style:normal;font-variant:normal;font-weight:normal;font-stretch:normal;line-height:0%;font-family:'DejaVu Sans';-inkscape-font-specification:'DejaVu Sans';display:inline;fill:#000000;fill-opacity:1;stroke:none;enable-background:new"
         inkscape:label="context"
         id="context"><tspan
           style="font-style:normal;font-variant:normal;font-weight:normal;font-stretch:normal;font-size:18px;line-height:1.25;font-family:'DejaVu Sans';-inkscape-font-specification:'DejaVu Sans'"
           y="337.74512"
           x="15.006836"
           sodipodi:role="line"
           id="tspan3933">places</tspan></text>
      <text
         y="337.74512"
         xml:space="preserve"
         x="142.48828"
         style="font-style:normal;font-variant:normal;font-weight:bold;font-stretch:normal;line-height:0%;font-family:'DejaVu Sans';-inkscape-font-specification:'DejaVu Sans Bold';text-align:start;writing-mode:lr-tb;text-anchor:start;display:inline;fill:#000000;fill-opacity:1;stroke:none;enable-background:new"
         inkscape:label="icon-name"
         id="icon-name"><tspan
           style="font-style:normal;font-variant:normal;font-weight:bold;font-stretch:normal;font-size:18px;line-height:1.25;font-family:'DejaVu Sans';-inkscape-font-specification:'DejaVu Sans Bold'"
           y="337.74512"
           x="142.48828"
           sodipodi:role="line"
           id="tspan3937">distributor-logo-manjaro</tspan></text>
      <rect
         style="display:inline;overflow:visible;visibility:visible;fill:#d3d7cf;fill-opacity:1;fill-rule:nonzero;stroke:none;stroke-width:2;marker:none;enable-background:accumulate"
         id="rect16x16"
         width="16"
         height="16"
         x="-32"
         y="268"
         inkscape:label="16x16"
         transform="scale(-1,1)" />
      <rect
         style="display:inline;overflow:visible;visibility:visible;fill:#d3d7cf;fill-opacity:1;fill-rule:nonzero;stroke:none;stroke-width:2;marker:none;enable-background:accumulate"
         id="rect24x24"
         width="24"
         height="24"
         x="-76"
         y="260"
         inkscape:label="24x24"
         transform="scale(-1,1)" />
      <rect
         style="display:inline;overflow:visible;visibility:visible;fill:#d3d7cf;fill-opacity:1;fill-rule:nonzero;stroke:none;stroke-width:2;marker:none;enable-background:accumulate"
         id="rect32x32"
         width="32"
         height="32"
         x="-128"
         y="252"
         inkscape:label="32x32"
         transform="scale(-1,1)" />
      <rect
         inkscape:label="48x48"
         y="236"
         x="-192"
         height="48"
         width="48"
         id="rect48x48"
         style="display:inline;overflow:visible;visibility:visible;fill:#d3d7cf;fill-opacity:1;fill-rule:nonzero;stroke:none;stroke-width:2;marker:none;enable-background:accumulate"
         transform="scale(-1,1)" />
      <rect
         style="display:inline;overflow:visible;visibility:visible;fill:#d3d7cf;fill-opacity:1;fill-rule:nonzero;stroke:none;stroke-width:1;marker:none;enable-background:accumulate"
         id="rect3951"
         width="256"
         height="256"
         x="-464"
         y="28"
         inkscape:label="48x48"
         transform="scale(-1,1)" />
    </g>
    <g
       inkscape:groupmode="layer"
       id="layer6"
       inkscape:label="Symbols"
       style="display:inline">
      <path
         sodipodi:nodetypes="cccccccccccccccccccccc"
         inkscape:connector-curvature="0"
         style="color:#000000;display:inline;overflow:visible;visibility:visible;opacity:0.1;fill:#000000;fill-opacity:1;fill-rule:nonzero;stroke:none;marker:none;filter:url(#filter4192);enable-background:new"
         d="M 144,112 H 256 V 48 H 384 V -64 H 144 Z M 400,-64 V 384 H 512 V -64 Z M 272,64 V 384 H 384 V 64 Z M 144,128 V 384 H 256 V 128 Z"
         id="path4196"
         transform="matrix(0.5,0,0,0.5,164,80)" />
      <path
         id="path4190"
         d="M 144,112 H 256 V 48 H 384 V -64 H 144 Z M 400,-64 V 384 H 512 V -64 Z M 272,64 V 384 H 384 V 64 Z M 144,128 V 384 H 256 V 128 Z"
         style="color:#000000;display:inline;overflow:visible;visibility:visible;opacity:0.2;fill:#000000;fill-opacity:1;fill-rule:nonzero;stroke:none;marker:none;filter:url(#filter4192);enable-background:new"
         inkscape:connector-curvature="0"
         sodipodi:nodetypes="cccccccccccccccccccccc"
         transform="matrix(0.5,0,0,0.5,164,80)" />
      <path
         sodipodi:nodetypes="cccccccccccccccccccccc"
         inkscape:connector-curvature="0"
         style="color:#000000;display:inline;overflow:visible;visibility:visible;opacity:0.2;fill:#000000;fill-opacity:1;fill-rule:nonzero;stroke:none;stroke-width:0.5;marker:none;enable-background:new"
         d="m 236,135 h 56 v -32 h 64 V 47 H 236 Z M 364,47 v 224 h 56 V 47 Z m -64,64 v 160 h 56 V 111 Z m -64,32 v 128 h 56 V 143 Z"
         id="path4188" />
      <path
         id="path4174"
         d="m 100,266 7,0 0,-4 8,0 0,-7 -15,0 z m 16,-11 0,28 7,0 0,-28 z m -8,8 0,20 7,0 0,-20 z m -8,4 0,16 7,0 0,-16 z"
         style="color:#000000;display:inline;overflow:visible;visibility:visible;opacity:0.2;fill:#000000;fill-opacity:1;fill-rule:nonzero;stroke:none;marker:none;enable-background:new"
         inkscape:connector-curvature="0"
         sodipodi:nodetypes="cccccccccccccccccccccc" />
      <path
         sodipodi:nodetypes="cccccccccccccccccccccc"
         inkscape:connector-curvature="0"
         style="color:#000000;display:inline;overflow:visible;visibility:visible;opacity:0.2;fill:#000000;fill-opacity:1;fill-rule:nonzero;stroke:none;marker:none;enable-background:new"
         d="m 56,272 5,0 0,-4 6,0 0,-5 -11,0 z m 12,-9 0,20 5,0 0,-20 z m -6,6 0,14 5,0 0,-14 z m -6,4 0,10 5,0 0,-10 z"
         id="path4176" />
      <path
         id="path4178"
         d="m 150,258 10,0 0,-8 12,0 0,-10 -22,0 z m 24,-18 0,42 10,0 0,-42 z m -12,12 0,30 10,0 0,-30 z m -12,8 0,22 10,0 0,-22 z"
         style="color:#000000;display:inline;overflow:visible;visibility:visible;opacity:0.2;fill:#000000;fill-opacity:1;fill-rule:nonzero;stroke:none;marker:none;enable-background:new"
         inkscape:connector-curvature="0"
         sodipodi:nodetypes="cccccccccccccccccccccc" />
      <path
         id="path3897"
         d="m 236,134 h 56 v -32 h 64 V 46 H 236 Z M 364,46 v 224 h 56 V 46 Z m -64,64 v 160 h 56 V 110 Z m -64,32 v 128 h 56 V 142 Z"
         style="color:#000000;display:inline;overflow:visible;visibility:visible;fill:#00e676;fill-opacity:1;fill-rule:nonzero;stroke:none;stroke-width:0.5;marker:none;enable-background:new"
         inkscape:connector-curvature="0"
         sodipodi:nodetypes="cccccccccccccccccccccc" />
      <path
         sodipodi:nodetypes="cccccccccccccccccccccc"
         inkscape:connector-curvature="0"
         style="color:#000000;display:inline;overflow:visible;visibility:visible;fill:#00e676;fill-opacity:1;fill-rule:nonzero;stroke:none;marker:none;enable-background:new"
         d="m 100,265 7,0 0,-4 8,0 0,-7 -15,0 z m 16,-11 0,28 7,0 0,-28 z m -8,8 0,20 7,0 0,-20 z m -8,4 0,16 7,0 0,-16 z"
         id="path4154" />
      <path
         id="path4156"
         d="m 56,271 5,0 0,-4 6,0 0,-5 -11,0 z m 12,-9 0,20 5,0 0,-20 z m -6,6 0,14 5,0 0,-14 z m -6,4 0,10 5,0 0,-10 z"
         style="color:#000000;display:inline;overflow:visible;visibility:visible;fill:#00e676;fill-opacity:1;fill-rule:nonzero;stroke:none;marker:none;enable-background:new"
         inkscape:connector-curvature="0"
         sodipodi:nodetypes="cccccccccccccccccccccc" />
      <path
         sodipodi:nodetypes="cccccccccccccccccccccc"
         inkscape:connector-curvature="0"
         style="color:#000000;display:inline;overflow:visible;visibility:visible;fill:#00e676;fill-opacity:1;fill-rule:nonzero;stroke:none;marker:none;enable-background:new"
         d="m 18,276 3,0 0,-4 4,0 0,-3 -7,0 z m 8,-7 0,14 3,0 0,-14 z m -4,4 0,10 3,0 0,-10 z m -4,4 0,6 3,0 0,-6 z"
         id="path4158" />
      <path
         sodipodi:nodetypes="cccccccccccccccccccccc"
         inkscape:connector-curvature="0"
         style="color:#000000;display:inline;overflow:visible;visibility:visible;fill:#00e676;fill-opacity:1;fill-rule:nonzero;stroke:none;marker:none;enable-background:new"
         d="m 150,257 10,0 0,-8 12,0 0,-10 -22,0 z m 24,-18 0,42 10,0 0,-42 z m -12,12 0,30 10,0 0,-30 z m -12,8 0,22 10,0 0,-22 z"
         id="path4160" />
      <path
         style="color:#000000;display:inline;overflow:visible;visibility:visible;fill:#ffffff;fill-opacity:1;fill-rule:nonzero;stroke:none;marker:none;enable-background:new;opacity:0.2"
         d="M 100 498 L 100 499 L 115 499 L 115 498 L 100 498 z M 116 498 L 116 499 L 123 499 L 123 498 L 116 498 z M 108 506 L 108 507 L 115 507 L 115 506 L 108 506 z M 100 510 L 100 511 L 107 511 L 107 510 L 100 510 z "
         transform="translate(0,-244)"
         id="path4162" />
      <path
         style="color:#000000;display:inline;overflow:visible;visibility:visible;fill:#ffffff;fill-opacity:1;fill-rule:nonzero;stroke:none;marker:none;enable-background:new;opacity:0.2"
         d="M 56 506 L 56 507 L 67 507 L 67 506 L 56 506 z M 68 506 L 68 507 L 73 507 L 73 506 L 68 506 z M 62 512 L 62 513 L 67 513 L 67 512 L 62 512 z M 56 516 L 56 517 L 61 517 L 61 516 L 56 516 z "
         transform="translate(0,-244)"
         id="path4164" />
      <path
         style="color:#000000;display:inline;overflow:visible;visibility:visible;fill:#ffffff;fill-opacity:1;fill-rule:nonzero;stroke:none;marker:none;enable-background:new;opacity:0.2"
         d="M 150 483 L 150 484 L 172 484 L 172 483 L 150 483 z M 174 483 L 174 484 L 184 484 L 184 483 L 174 483 z M 162 495 L 162 496 L 172 496 L 172 495 L 162 495 z M 150 503 L 150 504 L 160 504 L 160 503 L 150 503 z "
         transform="translate(0,-244)"
         id="path4166" />
      <path
         style="color:#000000;display:inline;overflow:visible;visibility:visible;opacity:0.2;fill:#ffffff;fill-opacity:1;fill-rule:nonzero;stroke:none;stroke-width:0.5;marker:none;enable-background:new"
         d="m 236,46 v 1 h 120 v -1 z m 128,0 v 1 h 56 v -1 z m -64,64 v 1 h 56 v -1 z m -64,32 v 1 h 56 v -1 z"
         id="path4183"
         inkscape:connector-curvature="0" />
    </g>
  </g>
</svg>
