<?xml version="1.0" encoding="UTF-8" standalone="no"?>
<svg
   xmlns:dc="http://purl.org/dc/elements/1.1/"
   xmlns:cc="http://creativecommons.org/ns#"
   xmlns:rdf="http://www.w3.org/1999/02/22-rdf-syntax-ns#"
   xmlns:svg="http://www.w3.org/2000/svg"
   xmlns="http://www.w3.org/2000/svg"
   xmlns:sodipodi="http://sodipodi.sourceforge.net/DTD/sodipodi-0.dtd"
   xmlns:inkscape="http://www.inkscape.org/namespaces/inkscape"
   inkscape:export-filename="/home/sam/Pop-template.png"
   style="display:inline;enable-background:new"
   version="1.0"
   inkscape:output_extension="org.inkscape.output.svg.inkscape"
   sodipodi:docname="distributor-logo-mageia.svg"
   inkscape:version="1.0beta1 (fe3e306978, 2019-09-17)"
   sodipodi:version="0.32"
   id="svg11300"
   height="544"
   width="736"
   inkscape:export-xdpi="90.000000"
   inkscape:export-ydpi="90.000000">
  <title
     id="title3004">Pop Icon Theme Template</title>
  <sodipodi:namedview
     inkscape:document-rotation="0"
     inkscape:snap-smooth-nodes="true"
     inkscape:snap-intersection-paths="true"
     inkscape:object-paths="true"
     inkscape:snap-global="true"
     inkscape:snap-bbox-midpoints="true"
     inkscape:bbox-paths="true"
     inkscape:window-maximized="1"
     inkscape:guide-bbox="true"
     showguides="true"
     inkscape:snap-grids="true"
     inkscape:object-nodes="true"
     gridtolerance="10000"
     inkscape:snap-bbox="true"
     inkscape:snap-nodes="true"
     height="300px"
     width="400px"
     inkscape:window-y="27"
     inkscape:window-x="0"
     inkscape:window-height="1376"
     inkscape:window-width="2560"
     inkscape:showpageshadow="false"
     inkscape:document-units="px"
     inkscape:grid-bbox="true"
     showgrid="false"
     inkscape:current-layer="layer6"
     inkscape:cy="176.4459"
     inkscape:cx="555.34208"
     inkscape:zoom="1"
     inkscape:pageshadow="2"
     inkscape:pageopacity="0"
     borderopacity="0.25490196"
     bordercolor="#000000"
     pagecolor="#6b6b6b"
     id="base"
     fill="#f57900"
     stroke="#ef2929">
    <inkscape:grid
       originy="0"
       originx="0"
       snapvisiblegridlinesonly="true"
       empspacing="4"
       visible="true"
       enabled="true"
       type="xygrid"
       id="grid5883"
       spacingx="1"
       spacingy="1" />
    <inkscape:grid
       originy="0"
       originx="0"
       snapvisiblegridlinesonly="true"
       empopacity="0.25098039"
       empcolor="#ff0000"
       opacity="0.1254902"
       color="#ff0000"
       spacingy="0.5"
       spacingx="0.5"
       enabled="false"
       visible="true"
       empspacing="2"
       id="grid11592"
       type="xygrid" />
  </sodipodi:namedview>
  <defs
     id="defs3">
    <linearGradient
       id="SVGID_12_"
       gradientUnits="userSpaceOnUse"
       x1="-51.767601"
       y1="235.84129"
       x2="-51.767601"
       y2="253.84129"
       gradientTransform="matrix(1,0,0,-1,-0.80292847,1022.6884)">
      <stop
         offset="0"
         style="stop-color:#2397D4"
         id="stop83" />
      <stop
         offset="1"
         style="stop-color:#65E7FF"
         id="stop85" />
    </linearGradient>
    <linearGradient
       id="SVGID_11_"
       gradientUnits="userSpaceOnUse"
       x1="-75.768997"
       y1="249.84129"
       x2="-75.768997"
       y2="265.84329"
       gradientTransform="matrix(1,0,0,-1,-0.80292847,1022.6884)">
      <stop
         offset="0"
         style="stop-color:#2397D4"
         id="stop76" />
      <stop
         offset="1"
         style="stop-color:#65E7FF"
         id="stop78" />
    </linearGradient>
    <linearGradient
       id="SVGID_10_"
       gradientUnits="userSpaceOnUse"
       x1="-48.767601"
       y1="198.83839"
       x2="-48.767601"
       y2="220.8394"
       gradientTransform="matrix(1,0,0,-1,-0.80292847,1022.6884)">
      <stop
         offset="0"
         style="stop-color:#2397D4"
         id="stop69" />
      <stop
         offset="1"
         style="stop-color:#65E7FF"
         id="stop71" />
    </linearGradient>
    <linearGradient
       id="SVGID_9_"
       gradientUnits="userSpaceOnUse"
       x1="-70.767601"
       y1="217.8394"
       x2="-70.767601"
       y2="237.84129"
       gradientTransform="matrix(1,0,0,-1,-0.80292847,1022.6884)">
      <stop
         offset="0"
         style="stop-color:#2397D4"
         id="stop62" />
      <stop
         offset="1"
         style="stop-color:#65E7FF"
         id="stop64" />
    </linearGradient>
    <linearGradient
       id="SVGID_8_"
       gradientUnits="userSpaceOnUse"
       x1="-84.767601"
       y1="190.83839"
       x2="-84.767601"
       y2="214.8394"
       gradientTransform="matrix(1,0,0,-1,-0.80292847,1022.6884)">
      <stop
         offset="0"
         style="stop-color:#2397D4"
         id="stop55" />
      <stop
         offset="1"
         style="stop-color:#65E7FF"
         id="stop57" />
    </linearGradient>
    <linearGradient
       id="SVGID_7_"
       gradientUnits="userSpaceOnUse"
       x1="-68.768997"
       y1="67.834"
       x2="-68.769096"
       y2="193.83791"
       gradientTransform="matrix(1,0,0,-1,214.5,339.5771)">
      <stop
         offset="0"
         style="stop-color:#252D42"
         id="stop48" />
      <stop
         offset="1"
         style="stop-color:#485E82"
         id="stop50" />
    </linearGradient>
    <linearGradient
       id="SVGID_13_"
       gradientUnits="userSpaceOnUse"
       x1="421.94781"
       y1="169.6572"
       x2="421.94781"
       y2="191.8867"
       gradientTransform="matrix(1.2857964,0,0,-1.2857964,258.25103,1168.7191)">
      <stop
         offset="0"
         style="stop-color:#2397D4"
         id="stop4379" />
      <stop
         offset="1"
         style="stop-color:#65E7FF"
         id="stop4381" />
    </linearGradient>
    <linearGradient
       id="SVGID_12_-6"
       gradientUnits="userSpaceOnUse"
       x1="-51.767601"
       y1="235.84129"
       x2="-51.767601"
       y2="253.84129"
       gradientTransform="matrix(1.2857964,0,0,-1.2857964,258.25103,1168.7191)">
      <stop
         offset="0"
         style="stop-color:#2397D4"
         id="stop4372" />
      <stop
         offset="1"
         style="stop-color:#65E7FF"
         id="stop4374" />
    </linearGradient>
    <linearGradient
       id="SVGID_11_-6"
       gradientUnits="userSpaceOnUse"
       x1="-75.768997"
       y1="249.84129"
       x2="-75.768997"
       y2="265.84329"
       gradientTransform="matrix(1.2857964,0,0,-1.2857964,258.25103,1168.7191)">
      <stop
         offset="0"
         style="stop-color:#2397D4"
         id="stop4365" />
      <stop
         offset="1"
         style="stop-color:#65E7FF"
         id="stop4367" />
    </linearGradient>
    <linearGradient
       id="SVGID_10_-9"
       gradientUnits="userSpaceOnUse"
       x1="-48.767601"
       y1="198.83839"
       x2="-48.767601"
       y2="220.8394"
       gradientTransform="matrix(1.2857964,0,0,-1.2857964,258.25103,1168.7191)">
      <stop
         offset="0"
         style="stop-color:#2397D4"
         id="stop4358" />
      <stop
         offset="1"
         style="stop-color:#65E7FF"
         id="stop4360" />
    </linearGradient>
    <linearGradient
       id="SVGID_9_-9"
       gradientUnits="userSpaceOnUse"
       x1="-70.767601"
       y1="217.8394"
       x2="-70.767601"
       y2="237.84129"
       gradientTransform="matrix(1.2857964,0,0,-1.2857964,258.25103,1168.7191)">
      <stop
         offset="0"
         style="stop-color:#2397D4"
         id="stop4351" />
      <stop
         offset="1"
         style="stop-color:#65E7FF"
         id="stop4353" />
    </linearGradient>
    <linearGradient
       id="SVGID_8_-1"
       gradientUnits="userSpaceOnUse"
       x1="-84.767601"
       y1="190.83839"
       x2="-84.767601"
       y2="214.8394"
       gradientTransform="matrix(1.2857964,0,0,-1.2857964,258.25103,1168.7191)">
      <stop
         offset="0"
         style="stop-color:#2397D4"
         id="stop4344" />
      <stop
         offset="1"
         style="stop-color:#65E7FF"
         id="stop4346" />
    </linearGradient>
    <linearGradient
       id="SVGID_6_"
       gradientUnits="userSpaceOnUse"
       x1="421.94781"
       y1="87.412102"
       x2="421.94781"
       y2="161.147"
       gradientTransform="matrix(1.2857964,0,0,-1.2857964,258.25103,1168.7191)">
      <stop
         offset="0"
         style="stop-color:#252D42"
         id="stop4328" />
      <stop
         offset="1"
         style="stop-color:#485E82"
         id="stop4330" />
    </linearGradient>
    <linearGradient
       id="SVGID_5_"
       gradientUnits="userSpaceOnUse"
       x1="89.801804"
       y1="87.414101"
       x2="89.801804"
       y2="161.1479"
       gradientTransform="matrix(1.2857964,0,0,-1.2857964,258.25103,1168.7191)">
      <stop
         offset="0"
         style="stop-color:#252D42"
         id="stop4321" />
      <stop
         offset="1"
         style="stop-color:#485E82"
         id="stop4323" />
    </linearGradient>
    <linearGradient
       id="SVGID_4_"
       gradientUnits="userSpaceOnUse"
       x1="363.0806"
       y1="87.414101"
       x2="363.0806"
       y2="161.14841"
       gradientTransform="matrix(1.2857964,0,0,-1.2857964,258.25103,1168.7191)">
      <stop
         offset="0"
         style="stop-color:#252D42"
         id="stop4314" />
      <stop
         offset="1"
         style="stop-color:#485E82"
         id="stop4316" />
    </linearGradient>
    <linearGradient
       id="SVGID_3_"
       gradientUnits="userSpaceOnUse"
       x1="481.40869"
       y1="87.414101"
       x2="481.40869"
       y2="161.147"
       gradientTransform="matrix(1.2857964,0,0,-1.2857964,258.25103,1168.7191)">
      <stop
         offset="0"
         style="stop-color:#252D42"
         id="stop4307" />
      <stop
         offset="1"
         style="stop-color:#485E82"
         id="stop4309" />
    </linearGradient>
    <linearGradient
       id="SVGID_2_"
       gradientUnits="userSpaceOnUse"
       x1="191.85789"
       y1="87.414101"
       x2="191.85789"
       y2="161.147"
       gradientTransform="matrix(1.2857964,0,0,-1.2857964,258.25103,1168.7191)">
      <stop
         offset="0"
         style="stop-color:#252D42"
         id="stop4300" />
      <stop
         offset="1"
         style="stop-color:#485E82"
         id="stop4302" />
    </linearGradient>
    <linearGradient
       id="SVGID_1_"
       gradientUnits="userSpaceOnUse"
       x1="277.86081"
       y1="84.733398"
       x2="277.86081"
       y2="162.6368"
       gradientTransform="matrix(1,0,0,-1,214.5,339.5771)">
      <stop
         offset="0"
         style="stop-color:#252D42"
         id="stop4293" />
      <stop
         offset="1"
         style="stop-color:#485E82"
         id="stop4295" />
    </linearGradient>
    <filter
       height="1.04"
       y="-0.02"
       width="1.06"
       x="-0.03"
       id="filter4748"
       style="color-interpolation-filters:sRGB"
       inkscape:collect="always">
      <feGaussianBlur
         id="feGaussianBlur4750"
         stdDeviation="4"
         inkscape:collect="always" />
    </filter>
  </defs>
  <metadata
     id="metadata4">
    <rdf:RDF>
      <cc:Work
         rdf:about="">
        <dc:format>image/svg+xml</dc:format>
        <dc:type
           rdf:resource="http://purl.org/dc/dcmitype/StillImage" />
        <dc:creator>
          <cc:Agent>
            <dc:title>Sam Hewitt</dc:title>
          </cc:Agent>
        </dc:creator>
        <dc:source />
        <cc:license
           rdf:resource="http://creativecommons.org/licenses/by-sa/3.0/" />
        <dc:title>Pop Icon Theme Template</dc:title>
        <dc:subject>
          <rdf:Bag />
        </dc:subject>
        <dc:date />
        <dc:rights>
          <cc:Agent>
            <dc:title />
          </cc:Agent>
        </dc:rights>
        <dc:publisher>
          <cc:Agent>
            <dc:title />
          </cc:Agent>
        </dc:publisher>
        <dc:identifier />
        <dc:relation />
        <dc:language />
        <dc:coverage />
        <dc:description />
        <dc:contributor>
          <cc:Agent>
            <dc:title />
          </cc:Agent>
        </dc:contributor>
      </cc:Work>
      <cc:Work
         rdf:about="">
        <dc:format>image/svg+xml</dc:format>
        <dc:type
           rdf:resource="http://purl.org/dc/dcmitype/StillImage" />
      </cc:Work>
      <cc:License
         rdf:about="http://creativecommons.org/licenses/by-sa/3.0/">
        <cc:permits
           rdf:resource="http://creativecommons.org/ns#Reproduction" />
        <cc:permits
           rdf:resource="http://creativecommons.org/ns#Distribution" />
        <cc:requires
           rdf:resource="http://creativecommons.org/ns#Notice" />
        <cc:requires
           rdf:resource="http://creativecommons.org/ns#Attribution" />
        <cc:permits
           rdf:resource="http://creativecommons.org/ns#DerivativeWorks" />
        <cc:requires
           rdf:resource="http://creativecommons.org/ns#ShareAlike" />
      </cc:License>
    </rdf:RDF>
  </metadata>
  <g
     transform="translate(0,244)"
     id="layer1"
     inkscape:label="Icon"
     inkscape:groupmode="layer"
     style="display:inline">
    <g
       inkscape:groupmode="layer"
       id="layer7"
       inkscape:label="Baseplate"
       style="display:none">
      <text
         id="context"
         inkscape:label="context"
         style="font-style:normal;font-variant:normal;font-weight:normal;font-stretch:normal;line-height:0%;font-family:'DejaVu Sans';-inkscape-font-specification:'DejaVu Sans';display:inline;fill:#000000;fill-opacity:1;stroke:none;enable-background:new"
         x="15.006836"
         xml:space="preserve"
         y="337.74512"><tspan
           id="tspan3933"
           sodipodi:role="line"
           x="15.006836"
           y="337.74512"
           style="font-style:normal;font-variant:normal;font-weight:normal;font-stretch:normal;font-size:18px;line-height:1.25;font-family:'DejaVu Sans';-inkscape-font-specification:'DejaVu Sans'">places</tspan></text>
      <text
         id="icon-name"
         inkscape:label="icon-name"
         style="font-style:normal;font-variant:normal;font-weight:bold;font-stretch:normal;line-height:0%;font-family:'DejaVu Sans';-inkscape-font-specification:'DejaVu Sans Bold';text-align:start;writing-mode:lr-tb;text-anchor:start;display:inline;fill:#000000;fill-opacity:1;stroke:none;enable-background:new"
         x="142.48828"
         xml:space="preserve"
         y="337.74512"><tspan
           id="tspan3937"
           sodipodi:role="line"
           x="142.48828"
           y="337.74512"
           style="font-style:normal;font-variant:normal;font-weight:bold;font-stretch:normal;font-size:18px;line-height:1.25;font-family:'DejaVu Sans';-inkscape-font-specification:'DejaVu Sans Bold'">distributor-logo-mageia</tspan></text>
      <rect
         transform="scale(-1,1)"
         inkscape:label="16x16"
         y="268"
         x="-32"
         height="16"
         width="16"
         id="rect16x16"
         style="display:inline;overflow:visible;visibility:visible;fill:#d3d7cf;fill-opacity:1;fill-rule:nonzero;stroke:none;stroke-width:2;marker:none;enable-background:accumulate" />
      <rect
         transform="scale(-1,1)"
         inkscape:label="24x24"
         y="260"
         x="-76"
         height="24"
         width="24"
         id="rect24x24"
         style="display:inline;overflow:visible;visibility:visible;fill:#d3d7cf;fill-opacity:1;fill-rule:nonzero;stroke:none;stroke-width:2;marker:none;enable-background:accumulate" />
      <rect
         transform="scale(-1,1)"
         inkscape:label="32x32"
         y="252"
         x="-128"
         height="32"
         width="32"
         id="rect32x32"
         style="display:inline;overflow:visible;visibility:visible;fill:#d3d7cf;fill-opacity:1;fill-rule:nonzero;stroke:none;stroke-width:2;marker:none;enable-background:accumulate" />
      <rect
         transform="scale(-1,1)"
         style="display:inline;overflow:visible;visibility:visible;fill:#d3d7cf;fill-opacity:1;fill-rule:nonzero;stroke:none;stroke-width:2;marker:none;enable-background:accumulate"
         id="rect48x48"
         width="48"
         height="48"
         x="-192"
         y="236"
         inkscape:label="48x48" />
      <rect
         inkscape:label="48x48"
         y="28"
         x="208"
         height="256"
         width="256"
         id="rect3951"
         style="display:inline;overflow:visible;visibility:visible;fill:#d3d7cf;fill-opacity:1;fill-rule:nonzero;stroke:none;stroke-width:1;marker:none;enable-background:accumulate" />
    </g>
    <g
       style="display:inline"
       inkscape:label="Symbols"
       id="layer6"
       inkscape:groupmode="layer">
      <path
         id="path4781"
         d="m 167,240 a 1.5,1.5 0 0 0 -1.5,1.5 1.5,1.5 0 0 0 1.5,1.5 1.5,1.5 0 0 0 1.5,-1.5 1.5,1.5 0 0 0 -1.5,-1.5 z m 4,2.5 a 1.75,1.75 0 0 0 -1.75,1.75 1.75,1.75 0 0 0 1.75,1.75 1.75,1.75 0 0 0 1.75,-1.75 1.75,1.75 0 0 0 -1.75,-1.75 z m -4,2.5 a 2,2 0 0 0 -2,2 2,2 0 0 0 2,2 2,2 0 0 0 2,-2 2,2 0 0 0 -2,-2 z m 4.99609,4.5 c -1.24077,0.001 -2.25004,1.01176 -2.24804,2.25391 8.1e-4,1.23887 1.01005,2.24609 2.25,2.24609 l 0.002,0 c 1.24058,-0.001 2.24805,-1.01176 2.24805,-2.25391 -0.001,-1.23887 -1.01037,-2.24609 -2.25196,-2.24609 z m -6.49804,1.5 c -1.37834,0.001 -2.50005,1.12319 -2.49805,2.50391 0.001,1.37613 1.12291,2.49609 2.5,2.49609 l 0.002,0 C 166.88029,255.99855 168,254.87681 168,253.49609 167.99834,252.11996 166.87721,251 165.49805,251 Z m -6.14258,5.99219 A 14,14 0 0 0 154,268 14,14 0 0 0 168,282 14,14 0 0 0 182,268 14,14 0 0 0 176.64453,257.00781 14,14 0 0 1 168,260 a 14,14 0 0 1 -8.64453,-3.00781 z"
         style="opacity:0.2;fill:#000000;fill-opacity:1"
         inkscape:connector-curvature="0" />
      <path
         id="path4783"
         d="m 111.28516,254 a 1.0714286,1.0714286 0 0 0 -1.07032,1.07227 1.0714286,1.0714286 0 0 0 1.07032,1.07031 1.0714286,1.0714286 0 0 0 1.07226,-1.07031 A 1.0714286,1.0714286 0 0 0 111.28516,254 Z m 2.85742,1.78516 a 1.25,1.25 0 0 0 -1.25,1.25 1.25,1.25 0 0 0 1.25,1.25 1.25,1.25 0 0 0 1.25,-1.25 1.25,1.25 0 0 0 -1.25,-1.25 z m -2.85742,1.78711 A 1.4285714,1.4285714 0 0 0 109.85742,259 a 1.4285714,1.4285714 0 0 0 1.42774,1.42773 1.4285714,1.4285714 0 0 0 1.42968,-1.42773 1.4285714,1.4285714 0 0 0 -1.42968,-1.42773 z m 3.56836,3.21289 c -0.88626,7.5e-4 -1.60658,0.72211 -1.60547,1.60937 5.8e-4,0.8849 0.72174,1.60547 1.60742,1.60547 l 0.002,0 c 0.88612,-8.8e-4 1.60352,-0.72212 1.60352,-1.60938 -8.7e-4,-0.8849 -0.72058,-1.60546 -1.60742,-1.60546 z m -4.64063,1.07226 c -0.98363,0.002 -1.78626,0.8035 -1.78516,1.78906 0.001,0.98295 0.80346,1.78125 1.78711,1.78125 l 0.002,0 c 0.98453,-10e-4 1.7832,-0.80088 1.7832,-1.78711 -0.001,-0.98229 -0.80095,-1.78213 -1.78516,-1.7832 l -0.002,0 z m -4.38672,4.2793 A 9.9999999,9.9999999 0 0 0 102,274 a 9.9999999,9.9999999 0 0 0 10,10 9.9999999,9.9999999 0 0 0 10,-10 9.9999999,9.9999999 0 0 0 -3.82617,-7.85156 9.9999999,9.9999999 0 0 1 -6.17383,2.13672 9.9999999,9.9999999 0 0 1 -6.17383,-2.14844 z"
         style="opacity:0.2;fill:#000000;fill-opacity:1"
         inkscape:connector-curvature="0" />
      <path
         id="path4785"
         d="m 63.5,262 a 0.75,0.75 0 0 0 -0.75,0.75 0.75,0.75 0 0 0 0.75,0.75 0.75,0.75 0 0 0 0.75,-0.75 A 0.75,0.75 0 0 0 63.5,262 Z m 2,1.25 A 0.875,0.875 0 0 0 64.625,264.125 0.875,0.875 0 0 0 65.5,265 0.875,0.875 0 0 0 66.375,264.125 0.875,0.875 0 0 0 65.5,263.25 Z m -2,1.25 a 1,1 0 0 0 -1,1 1,1 0 0 0 1,1 1,1 0 0 0 1,-1 1,1 0 0 0 -1,-1 z m 2.498047,2.25 c -0.620385,5.1e-4 -1.126,0.50588 -1.125,1.12695 4.05e-4,0.61944 0.505025,1.12305 1.125,1.12305 L 66,269 c 0.62029,-6.2e-4 1.123047,-0.50588 1.123047,-1.12695 -6.1e-4,-0.61944 -0.504205,-1.12305 -1.125,-1.12305 z m -3.25,0.75 C 62.058877,267.50073 61.499,268.06159 61.5,268.75195 61.500725,269.44001 62.061455,270 62.75,270 l 0.002,0 C 63.441123,269.99927 64,269.43841 64,268.74805 63.99917,268.05998 63.437627,267.5 62.748047,267.5 Z m -3.070313,2.99609 A 7,7 0 0 0 57,276 a 7,7 0 0 0 7,7 7,7 0 0 0 7,-7 7,7 0 0 0 -2.677734,-5.49609 A 7,7 0 0 1 64,272 7,7 0 0 1 59.677734,270.49609 Z"
         style="opacity:0.2;fill:#000000;fill-opacity:1"
         inkscape:connector-curvature="0" />
      <path
         transform="matrix(0.5,0,0,0.5,168,78)"
         inkscape:connector-curvature="0"
         id="path4752"
         d="m 324.57227,-80 a 17.142857,17.142857 0 0 0 -17.14454,17.14258 17.142857,17.142857 0 0 0 17.14454,17.14258 17.142857,17.142857 0 0 0 17.14257,-17.14258 A 17.142857,17.142857 0 0 0 324.57227,-80 Z m 45.71289,28.57227 a 20,20 0 0 0 -20,20 20,20 0 0 0 20,20 20,20 0 0 0 20,-20 20,20 0 0 0 -20,-20 z m -45.71289,28.57031 A 22.857141,22.857141 0 0 0 301.71484,0 22.857141,22.857141 0 0 0 324.57227,22.85742 22.857141,22.857141 0 0 0 347.42773,0 22.857141,22.857141 0 0 0 324.57227,-22.85742 Z m 57.0957,51.42773 c -14.18023,0.0118 -25.71431,11.554 -25.69141,25.75 C 355.98582,68.47883 367.52055,80 381.69141,80 h 0.0234 C 395.89287,79.98594 407.40427,68.446 407.40427,54.25 407.39037,40.09149 395.85754,28.57031 381.66794,28.57031 Z M 307.4043,45.7168 c -15.75246,0.0168 -28.56978,12.83362 -28.54688,28.61328 0.0166,15.7272 12.83214,28.52734 28.57031,28.52734 h 0.0234 l 0.002,0.002 C 323.20558,102.8428 336,90.02184 336,74.24219 335.981,58.51499 323.16613,45.7168 307.4043,45.7168 Z m -70.19922,68.48047 A 159.99999,159.99999 0 0 0 176,240 159.99999,159.99999 0 0 0 336,400 159.99999,159.99999 0 0 0 496,240 159.99999,159.99999 0 0 0 434.79492,114.375 159.99999,159.99999 0 0 1 336,148.57227 a 159.99999,159.99999 0 0 1 -98.79492,-34.375 z"
         style="opacity:0.1;fill:#000000;fill-opacity:1;filter:url(#filter4748)" />
      <path
         transform="matrix(0.5,0,0,0.5,168,78)"
         style="opacity:0.2;fill:#000000;fill-opacity:1;filter:url(#filter4748)"
         d="m 324.57227,-80 a 17.142857,17.142857 0 0 0 -17.14454,17.14258 17.142857,17.142857 0 0 0 17.14454,17.14258 17.142857,17.142857 0 0 0 17.14257,-17.14258 A 17.142857,17.142857 0 0 0 324.57227,-80 Z m 45.71289,28.57227 a 20,20 0 0 0 -20,20 20,20 0 0 0 20,20 20,20 0 0 0 20,-20 20,20 0 0 0 -20,-20 z m -45.71289,28.57031 A 22.857141,22.857141 0 0 0 301.71484,0 22.857141,22.857141 0 0 0 324.57227,22.85742 22.857141,22.857141 0 0 0 347.42773,0 22.857141,22.857141 0 0 0 324.57227,-22.85742 Z m 57.0957,51.42773 c -14.18023,0.0118 -25.71431,11.554 -25.69141,25.75 C 355.98582,68.47883 367.52055,80 381.69141,80 h 0.0234 C 395.89287,79.98594 407.40427,68.446 407.40427,54.25 407.39037,40.09149 395.85754,28.57031 381.66794,28.57031 Z M 307.4043,45.7168 c -15.75246,0.0168 -28.56978,12.83362 -28.54688,28.61328 0.0166,15.7272 12.83214,28.52734 28.57031,28.52734 h 0.0234 l 0.002,0.002 C 323.20558,102.8428 336,90.02184 336,74.24219 335.981,58.51499 323.16613,45.7168 307.4043,45.7168 Z m -70.19922,68.48047 A 159.99999,159.99999 0 0 0 176,240 159.99999,159.99999 0 0 0 336,400 159.99999,159.99999 0 0 0 496,240 159.99999,159.99999 0 0 0 434.79492,114.375 159.99999,159.99999 0 0 1 336,148.57227 a 159.99999,159.99999 0 0 1 -98.79492,-34.375 z"
         id="path4746"
         inkscape:connector-curvature="0" />
      <path
         inkscape:connector-curvature="0"
         id="path4741"
         d="m 330.28613,37 a 8.5714285,8.5714285 0 0 0 -8.57227,8.57129 8.5714285,8.5714285 0 0 0 8.57227,8.57129 8.5714285,8.5714285 0 0 0 8.57129,-8.57129 A 8.5714285,8.5714285 0 0 0 330.28613,37 Z m 22.85645,14.286135 a 10,10 0 0 0 -10,10 10,10 0 0 0 10,10 10,10 0 0 0 10,-10 10,10 0 0 0 -10,-10 z M 330.28613,65.57129 A 11.42857,11.42857 0 0 0 318.85742,77 11.42857,11.42857 0 0 0 330.28613,88.42871 11.42857,11.42857 0 0 0 341.71386,77 11.42857,11.42857 0 0 0 330.28613,65.57129 Z m 28.54785,25.713865 c -7.09011,0.0059 -12.85715,5.777 -12.8457,12.875005 0.005,7.07926 5.77199,12.83984 12.85742,12.83984 h 0.0117 c 7.08903,-0.007 12.84473,-5.777 12.84473,-12.875 -0.007,-7.079255 -5.77336,-12.839845 -12.86816,-12.839845 z M 321.70215,99.8584 c -7.87623,0.0084 -14.28489,6.41681 -14.27344,14.30664 0.008,7.8636 6.41607,14.26367 14.28515,14.26367 h 0.0117 l 0.001,0.001 C 329.60279,128.4214 336,122.01092 336,114.12109 335.9905,106.2575 329.58307,99.8584 321.70215,99.8584 Z m -35.09961,34.24023 A 79.999995,79.999995 0 0 0 256,197 79.999995,79.999995 0 0 0 336,277 79.999995,79.999995 0 0 0 416,197 79.999995,79.999995 0 0 0 385.39746,134.1875 79.999995,79.999995 0 0 1 336,151.28613 79.999995,79.999995 0 0 1 286.60254,134.09863 Z"
         style="opacity:0.2;fill:#000000;fill-opacity:1;stroke-width:0.5" />
      <path
         id="path3042-0-6-4"
         transform="translate(0,-244)"
         d="M 167 483 A 1.5 1.5 0 0 0 165.5 484.5 A 1.5 1.5 0 0 0 167 486 A 1.5 1.5 0 0 0 168.5 484.5 A 1.5 1.5 0 0 0 167 483 z M 171 485.5 A 1.75 1.75 0 0 0 169.25 487.25 A 1.75 1.75 0 0 0 171 489 A 1.75 1.75 0 0 0 172.75 487.25 A 1.75 1.75 0 0 0 171 485.5 z M 167 488 A 2 2 0 0 0 165 490 A 2 2 0 0 0 167 492 A 2 2 0 0 0 169 490 A 2 2 0 0 0 167 488 z M 171.99609 492.5 C 170.75532 492.50103 169.74605 493.51176 169.74805 494.75391 C 169.74886 495.99278 170.7581 497 171.99805 497 L 172 497 C 173.24058 496.99877 174.24805 495.98824 174.24805 494.74609 C 174.24683 493.50722 173.23768 492.5 171.99609 492.5 z M 165.49805 494 C 164.11971 494.00147 162.998 495.12319 163 496.50391 C 163.00145 497.88004 164.12291 499 165.5 499 L 165.50195 499 C 166.88029 498.99855 168 497.87681 168 496.49609 C 167.99834 495.11996 166.87721 494 165.49805 494 z "
         style="fill:#03a9f4;fill-opacity:1" />
      <path
         inkscape:connector-curvature="0"
         id="path4607"
         d="M 159.35547,255.99219 A 14,14 0 0 0 154,267 14,14 0 0 0 168,281 14,14 0 0 0 182,267 14,14 0 0 0 176.64453,256.00781 14,14 0 0 1 168,259 a 14,14 0 0 1 -8.64453,-3.00781 z"
         style="opacity:1;fill:#0d47a1;fill-opacity:1;stroke:none;stroke-width:8;stroke-linecap:round;stroke-linejoin:miter;stroke-miterlimit:4;stroke-dasharray:none;stroke-opacity:0.62886598" />
      <path
         id="path4634"
         transform="translate(0,-244)"
         d="M 63.5 505 A 0.75 0.75 0 0 0 62.75 505.75 A 0.75 0.75 0 0 0 63.5 506.5 A 0.75 0.75 0 0 0 64.25 505.75 A 0.75 0.75 0 0 0 63.5 505 z M 65.5 506.25 A 0.875 0.875 0 0 0 64.625 507.125 A 0.875 0.875 0 0 0 65.5 508 A 0.875 0.875 0 0 0 66.375 507.125 A 0.875 0.875 0 0 0 65.5 506.25 z M 63.5 507.5 A 1 1 0 0 0 62.5 508.5 A 1 1 0 0 0 63.5 509.5 A 1 1 0 0 0 64.5 508.5 A 1 1 0 0 0 63.5 507.5 z M 65.998047 509.75 C 65.377662 509.75051 64.872047 510.25588 64.873047 510.87695 C 64.873452 511.49639 65.378072 512 65.998047 512 L 66 512 C 66.62029 511.99938 67.123047 511.49412 67.123047 510.87305 C 67.122437 510.25361 66.618842 509.75 65.998047 509.75 z M 62.748047 510.5 C 62.058877 510.50073 61.499 511.06159 61.5 511.75195 C 61.500725 512.44001 62.061455 513 62.75 513 L 62.751953 513 C 63.441123 512.99927 64 512.43841 64 511.74805 C 63.99917 511.05998 63.437627 510.5 62.748047 510.5 z "
         style="fill:#03a9f4;fill-opacity:1" />
      <path
         style="opacity:1;fill:#0d47a1;fill-opacity:1;stroke:none;stroke-width:8;stroke-linecap:round;stroke-linejoin:miter;stroke-miterlimit:4;stroke-dasharray:none;stroke-opacity:0.62886598"
         d="M 59.677735,269.49609 A 7,7 0 0 0 57,275 a 7,7 0 0 0 7,7 7,7 0 0 0 7,-7 7,7 0 0 0 -2.677735,-5.49609 A 7,7 0 0 1 64,271 7,7 0 0 1 59.677735,269.49609 Z"
         id="path4644"
         inkscape:connector-curvature="0" />
      <path
         id="path4654"
         d="m 111.28602,253 a 1.0714286,1.0714286 0 0 0 -1.07204,1.07204 1.0714286,1.0714286 0 0 0 1.07204,1.06988 1.0714286,1.0714286 0 0 0 1.07206,-1.06988 A 1.0714286,1.0714286 0 0 0 111.28602,253 Z m 2.8559,1.78602 a 1.25,1.25 0 0 0 -1.25,1.25 1.25,1.25 0 0 0 1.25,1.25 1.25,1.25 0 0 0 1.25,-1.25 1.25,1.25 0 0 0 -1.25,-1.25 z m -2.8559,1.78602 A 1.4285714,1.4285714 0 0 0 109.85808,258 a 1.4285714,1.4285714 0 0 0 1.42794,1.42795 1.4285714,1.4285714 0 0 0 1.42796,-1.42795 1.4285714,1.4285714 0 0 0 -1.42796,-1.42796 z m 3.56771,3.21398 c -0.88626,7.5e-4 -1.60701,0.72082 -1.6059,1.60808 5.8e-4,0.8849 0.72239,1.6059 1.60807,1.6059 l 0.002,0 c 0.88612,-8.8e-4 1.60372,-0.72299 1.60372,-1.61025 -8.7e-4,-0.8849 -0.72122,-1.60373 -1.60806,-1.60373 z m -4.63975,1.07206 c -0.98454,0.001 -1.78714,0.80196 -1.78603,1.78819 0.001,0.98295 0.80238,1.78168 1.78603,1.78168 l 0.002,0 c 0.98453,-0.001 1.78385,-0.80197 1.78385,-1.7882 -0.001,-0.98295 -0.80091,-1.78167 -1.78602,-1.78167 z"
         style="fill:#03a9f4;fill-opacity:1"
         inkscape:connector-curvature="0" />
      <path
         style="opacity:1;fill:#0d47a1;fill-opacity:1;stroke:none;stroke-width:8;stroke-linecap:round;stroke-linejoin:miter;stroke-miterlimit:4;stroke-dasharray:none;stroke-opacity:0.62886598"
         d="M 105.82533,265.13728 A 9.9999999,9.9999999 0 0 0 102,273 a 9.9999999,9.9999999 0 0 0 10,10 9.9999999,9.9999999 0 0 0 10,-10 9.9999999,9.9999999 0 0 0 -3.82533,-7.85157 9.9999999,9.9999999 0 0 1 -6.17467,2.13728 9.9999999,9.9999999 0 0 1 -6.17467,-2.14843 z"
         id="path4664"
         inkscape:connector-curvature="0" />
      <path
         inkscape:connector-curvature="0"
         id="path4674"
         d="m 330.28613,36 a 8.5714285,8.5714285 0 0 0 -8.57227,8.571289 8.5714285,8.5714285 0 0 0 8.57227,8.571289 8.5714285,8.5714285 0 0 0 8.57129,-8.571289 A 8.5714285,8.5714285 0 0 0 330.28613,36 Z m 22.85645,14.286133 a 10,10 0 0 0 -10,10 10,10 0 0 0 10,10.000002 10,10 0 0 0 10,-10.000002 10,10 0 0 0 -10,-10 z M 330.28613,64.571289 A 11.42857,11.42857 0 0 0 318.85742,76 11.42857,11.42857 0 0 0 330.28613,87.42871 11.42857,11.42857 0 0 0 341.71386,76 11.42857,11.42857 0 0 0 330.28613,64.571289 Z m 28.54785,25.713866 c -7.09011,0.0059 -12.85715,5.777 -12.8457,12.875005 0.005,7.07926 5.77199,12.83984 12.85742,12.83984 h 0.0117 c 7.08905,-0.007 12.84475,-5.777 12.84475,-12.875 -0.007,-7.079255 -5.77337,-12.839845 -12.86817,-12.839845 z M 321.70215,98.8584 c -7.87623,0.0084 -14.28489,6.41681 -14.27344,14.30664 0.008,7.8636 6.41607,14.26367 14.28515,14.26367 h 0.0117 l 0.001,0.001 C 329.60279,127.4214 336,121.01092 336,113.12109 335.99051,105.2575 329.58307,98.8584 321.70215,98.8584 Z"
         style="fill:#03a9f4;fill-opacity:1;stroke-width:0.5" />
      <path
         inkscape:connector-curvature="0"
         id="path4684"
         d="m 286.60266,133.09821 a 79.999995,79.999995 0 0 0 -30.60268,62.90177 79.999995,79.999995 0 0 0 80,79.99999 79.999995,79.999995 0 0 0 79.99999,-79.99999 79.999995,79.999995 0 0 0 -30.60268,-62.81252 79.999995,79.999995 0 0 1 -49.39731,17.09823 79.999995,79.999995 0 0 1 -49.39732,-17.18748 z"
         style="opacity:1;fill:#0d47a1;fill-opacity:1;stroke:none;stroke-width:4;stroke-linecap:round;stroke-linejoin:miter;stroke-miterlimit:4;stroke-dasharray:none;stroke-opacity:0.628866" />
      <path
         inkscape:connector-curvature="0"
         style="fill:#03a9f4;fill-opacity:1"
         d="m 23.64301,269 a 0.5357143,0.5357143 0 0 0 -0.53602,0.53602 0.5357143,0.5357143 0 0 0 0.53602,0.53494 0.5357143,0.5357143 0 0 0 0.53603,-0.53494 A 0.5357143,0.5357143 0 0 0 23.64301,269 Z m 1.42795,0.89301 a 0.625,0.625 0 0 0 -0.625,0.625 0.625,0.625 0 0 0 0.625,0.625 0.625,0.625 0 0 0 0.625,-0.625 0.625,0.625 0 0 0 -0.625,-0.625 z m -1.42795,0.89301 a 0.7142857,0.7142857 0 0 0 -0.71397,0.71398 0.7142857,0.7142857 0 0 0 0.71397,0.71397 0.7142857,0.7142857 0 0 0 0.71398,-0.71397 0.7142857,0.7142857 0 0 0 -0.71398,-0.71398 z m 1.783855,1.60699 c -0.44313,3.7e-4 -0.803505,0.36041 -0.80295,0.80404 C 24.624205,273.6395 24.98511,274 25.42795,274 l 0.001,0 c 0.44306,-4.4e-4 0.80186,-0.3615 0.80186,-0.80512 -4.35e-4,-0.44245 -0.36061,-0.80187 -0.80403,-0.80187 z m -2.319875,0.53603 c -0.49227,5e-4 -0.89357,0.40098 -0.893015,0.89409 5e-4,0.49148 0.40119,0.89084 0.893015,0.89084 l 0.001,0 c 0.492265,-4.9e-4 0.891925,-0.40098 0.891925,-0.89409 -5e-4,-0.49148 -0.400455,-0.89084 -0.89301,-0.89084 z"
         id="path4722" />
      <path
         inkscape:connector-curvature="0"
         id="path4724"
         d="M 20.912665,275.06864 A 5,5 0 0 0 19,279 a 5,5 0 0 0 5,5 5,5 0 0 0 5,-5 5,5 0 0 0 -1.912665,-3.92579 A 5,5 0 0 1 24,276.14285 5,5 0 0 1 20.912665,275.06864 Z"
         style="opacity:1;fill:#0d47a1;fill-opacity:1;stroke:none;stroke-width:8;stroke-linecap:round;stroke-linejoin:miter;stroke-miterlimit:4;stroke-dasharray:none;stroke-opacity:0.62886598" />
      <path
         inkscape:connector-curvature="0"
         id="path4730"
         d="m 330.28613,36 a 8.5714285,8.5714285 0 0 0 -8.57227,8.571289 8.5714285,8.5714285 0 0 0 0.0205,0.413086 A 8.5714285,8.5714285 0 0 1 330.28613,37 a 8.5714285,8.5714285 0 0 1 8.55078,8.157226 8.5714285,8.5714285 0 0 0 0.0205,-0.585937 A 8.5714285,8.5714285 0 0 0 330.28613,36 Z m 22.85645,14.286133 a 10,10 0 0 0 -10,10 10,10 0 0 0 0.0205,0.418945 10,10 0 0 1 9.9795,-9.418945 10,10 0 0 1 9.97949,9.581054 10,10 0 0 0 0.0205,-0.581054 10,10 0 0 0 -10,-10 z M 330.28613,64.571289 A 11.42857,11.42857 0 0 0 318.85742,76 a 11.42857,11.42857 0 0 0 0.0205,0.41406 11.42857,11.42857 0 0 1 11.4082,-10.842771 A 11.42857,11.42857 0 0 1 341.69335,76.58594 11.42857,11.42857 0 0 0 341.71385,76 11.42857,11.42857 0 0 0 330.28612,64.571289 Z m 28.54785,25.713866 c -7.09011,0.0059 -12.85715,5.777 -12.8457,12.875005 1e-4,0.15773 0.007,0.31432 0.0127,0.4707 0.26802,-6.852975 5.92028,-12.33995 12.83301,-12.345705 6.93179,0 12.59239,5.499375 12.85547,12.354495 0.007,-0.17103 0.0127,-0.34199 0.0127,-0.51465 -0.007,-7.079255 -5.77337,-12.839845 -12.86817,-12.839845 z M 321.70215,98.8584 c -7.87623,0.0084 -14.28489,6.41681 -14.27344,14.30664 1.7e-4,0.15858 0.007,0.31531 0.0127,0.47266 0.26768,-7.64569 6.56102,-13.77109 14.26074,-13.7793 7.71739,0 14.01793,6.13753 14.28516,13.77637 0.006,-0.17077 0.0127,-0.34145 0.0127,-0.51368 -0.009,-7.86359 -6.41693,-14.26269 -14.29785,-14.26269 z m -35.09961,34.24023 A 79.999995,79.999995 0 0 0 256,196 a 79.999995,79.999995 0 0 0 0.0166,0.32617 79.999995,79.999995 0 0 1 30.58594,-62.22754 A 79.999995,79.999995 0 0 0 336,151.28613 79.999995,79.999995 0 0 0 385.39746,134.1875 79.999995,79.999995 0 0 1 415.97949,196.59278 79.999995,79.999995 0 0 0 416,196 79.999995,79.999995 0 0 0 385.39746,133.1875 79.999995,79.999995 0 0 1 336,150.28613 79.999995,79.999995 0 0 1 286.60254,133.09863 Z"
         style="opacity:0.2;fill:#ffffff;fill-opacity:1;stroke-width:0.5" />
      <path
         id="path4754"
         transform="translate(0,-244)"
         d="M 167 483 A 1.5 1.5 0 0 0 165.5 484.5 A 1.5 1.5 0 0 0 165.58789 485 A 1.5 1.5 0 0 1 167 484 A 1.5 1.5 0 0 1 168.41211 485 A 1.5 1.5 0 0 0 168.5 484.5 A 1.5 1.5 0 0 0 167 483 z M 171 485.5 A 1.75 1.75 0 0 0 169.25 487.25 A 1.75 1.75 0 0 0 169.32422 487.75195 A 1.75 1.75 0 0 1 171 486.5 A 1.75 1.75 0 0 1 172.67578 487.74805 A 1.75 1.75 0 0 0 172.75 487.25 A 1.75 1.75 0 0 0 171 485.5 z M 167 488 A 2 2 0 0 0 165 490 A 2 2 0 0 0 165.06445 490.49609 A 2 2 0 0 1 167 489 A 2 2 0 0 1 168.93555 490.50391 A 2 2 0 0 0 169 490 A 2 2 0 0 0 167 488 z M 171.99609 492.5 C 170.75532 492.50103 169.74605 493.51176 169.74805 494.75391 C 169.74816 494.92464 169.77221 495.0901 169.80859 495.25 C 170.03721 494.25054 170.929 493.50086 171.99609 493.5 C 173.06657 493.5 173.95972 494.24961 174.1875 495.25 C 174.22484 495.08736 174.24805 494.91994 174.24805 494.74609 C 174.24683 493.50722 173.23768 492.5 171.99609 492.5 z M 165.49805 494 C 164.11971 494.00147 162.998 495.12319 163 496.50391 C 163.00018 496.67393 163.01804 496.83942 163.05078 497 C 163.28299 495.86022 164.292 495.00087 165.49805 495 C 166.70481 495 167.71466 495.85787 167.94922 496.99414 C 167.98178 496.83307 168 496.6667 168 496.49609 C 167.99834 495.11996 166.87721 494 165.49805 494 z M 159.35547 499.99219 A 14 14 0 0 0 154 511 A 14 14 0 0 0 154.02539 511.49023 A 14 14 0 0 1 159.35547 500.99219 A 14 14 0 0 0 168 504 A 14 14 0 0 0 176.64453 501.00781 A 14 14 0 0 1 181.97852 511.5918 A 14 14 0 0 0 182 511 A 14 14 0 0 0 176.64453 500.00781 A 14 14 0 0 1 168 503 A 14 14 0 0 1 159.35547 499.99219 z "
         style="fill:#ffffff;fill-opacity:1;opacity:0.2" />
      <path
         id="path4759"
         transform="translate(0,-244)"
         d="M 111.28516 497 A 1.0714286 1.0714286 0 0 0 110.21484 498.07227 A 1.0714286 1.0714286 0 0 0 110.33789 498.57031 A 1.0714286 1.0714286 0 0 1 111.28516 498 A 1.0714286 1.0714286 0 0 1 112.23242 498.57227 A 1.0714286 1.0714286 0 0 0 112.35742 498.07227 A 1.0714286 1.0714286 0 0 0 111.28516 497 z M 114.14258 498.78516 A 1.25 1.25 0 0 0 112.89258 500.03516 A 1.25 1.25 0 0 0 112.99805 500.53516 A 1.25 1.25 0 0 1 114.14258 499.78516 A 1.25 1.25 0 0 1 115.28711 500.53516 A 1.25 1.25 0 0 0 115.39258 500.03516 A 1.25 1.25 0 0 0 114.14258 498.78516 z M 111.28516 500.57227 A 1.4285714 1.4285714 0 0 0 109.85742 502 A 1.4285714 1.4285714 0 0 0 109.94922 502.5 A 1.4285714 1.4285714 0 0 1 111.28516 501.57227 A 1.4285714 1.4285714 0 0 1 112.62305 502.50195 A 1.4285714 1.4285714 0 0 0 112.71484 502 A 1.4285714 1.4285714 0 0 0 111.28516 500.57227 z M 114.85352 503.78516 C 113.96726 503.78591 113.24694 504.50727 113.24805 505.39453 C 113.24816 505.5694 113.28384 505.73484 113.33594 505.89258 C 113.54736 505.25226 114.14355 504.78576 114.85352 504.78516 C 115.56511 504.78516 116.16168 505.25209 116.37305 505.89258 C 116.4255 505.73359 116.46094 505.56711 116.46094 505.39062 C 116.46007 504.50572 115.74036 503.78516 114.85352 503.78516 z M 110.21289 504.85742 C 109.22926 504.8595 108.42663 505.66092 108.42773 506.64648 C 108.42791 506.82037 108.46091 506.9856 108.50781 507.14453 C 108.72595 506.40439 109.40441 505.85907 110.21289 505.85742 L 110.21484 505.85742 C 111.02429 505.8583 111.70169 506.40203 111.91992 507.14062 C 111.96671 506.98091 112 506.81547 112 506.64062 C 111.999 505.65833 111.19905 504.85849 110.21484 504.85742 L 110.21289 504.85742 z M 105.82617 509.13672 A 9.9999999 9.9999999 0 0 0 102 517 A 9.9999999 9.9999999 0 0 0 102.02539 517.49219 A 9.9999999 9.9999999 0 0 1 105.82617 510.13672 A 9.9999999 9.9999999 0 0 0 112 512.28516 A 9.9999999 9.9999999 0 0 0 118.17383 510.14844 A 9.9999999 9.9999999 0 0 1 121.97852 517.58594 A 9.9999999 9.9999999 0 0 0 122 517 A 9.9999999 9.9999999 0 0 0 118.17383 509.14844 A 9.9999999 9.9999999 0 0 1 112 511.28516 A 9.9999999 9.9999999 0 0 1 105.82617 509.13672 z "
         style="fill:#ffffff;fill-opacity:1;opacity:0.2" />
      <path
         id="path4764"
         transform="translate(0,-244)"
         d="M 63.5 505 A 0.75 0.75 0 0 0 62.75 505.75 A 0.75 0.75 0 0 0 62.941406 506.25 A 0.75 0.75 0 0 1 63.5 506 A 0.75 0.75 0 0 1 64.058594 506.25 A 0.75 0.75 0 0 0 64.25 505.75 A 0.75 0.75 0 0 0 63.5 505 z M 63.5 507.5 A 1 1 0 0 0 62.5 508.5 A 1 1 0 0 0 62.634766 509 A 1 1 0 0 1 63.5 508.5 A 1 1 0 0 1 64.365234 509 A 1 1 0 0 0 64.5 508.5 A 1 1 0 0 0 63.5 507.5 z M 65.998047 509.75 C 65.377662 509.75051 64.872047 510.25588 64.873047 510.87695 C 64.873166 511.05912 64.926464 511.22468 65.003906 511.37695 C 65.189527 511.01005 65.559901 510.75036 65.998047 510.75 C 66.436277 510.75 66.806472 511.00754 66.992188 511.37305 C 67.069242 511.22041 67.123047 511.05555 67.123047 510.87305 C 67.122437 510.25361 66.618842 509.75 65.998047 509.75 z M 62.748047 510.5 C 62.058877 510.50073 61.499 511.06159 61.5 511.75195 C 61.500188 511.92999 61.541689 512.0966 61.609375 512.25 C 61.802935 511.81066 62.238171 511.50054 62.748047 511.5 C 63.259199 511.5 63.696396 511.81053 63.890625 512.25 C 63.958731 512.09551 64 511.92765 64 511.74805 C 63.99917 511.05998 63.437627 510.5 62.748047 510.5 z M 59.677734 513.49609 A 7 7 0 0 0 57 519 A 7 7 0 0 0 57.025391 519.50781 A 7 7 0 0 1 59.677734 514.49609 A 7 7 0 0 0 64 516 A 7 7 0 0 0 68.322266 514.50391 A 7 7 0 0 1 70.976562 519.54102 A 7 7 0 0 0 71 519 A 7 7 0 0 0 68.322266 513.50391 A 7 7 0 0 1 64 515 A 7 7 0 0 1 59.677734 513.49609 z "
         style="fill:#ffffff;fill-opacity:1;opacity:0.2" />
    </g>
  </g>
</svg>
