<?xml version="1.0" encoding="UTF-8" standalone="no"?>
<svg
   xmlns:dc="http://purl.org/dc/elements/1.1/"
   xmlns:cc="http://creativecommons.org/ns#"
   xmlns:rdf="http://www.w3.org/1999/02/22-rdf-syntax-ns#"
   xmlns:svg="http://www.w3.org/2000/svg"
   xmlns="http://www.w3.org/2000/svg"
   xmlns:sodipodi="http://sodipodi.sourceforge.net/DTD/sodipodi-0.dtd"
   xmlns:inkscape="http://www.inkscape.org/namespaces/inkscape"
   inkscape:export-ydpi="90.000000"
   inkscape:export-xdpi="90.000000"
   width="736"
   height="544"
   id="svg11300"
   sodipodi:version="0.32"
   inkscape:version="1.0beta1 (fe3e306978, 2019-09-17)"
   sodipodi:docname="distributor-logo-korora.svg"
   inkscape:output_extension="org.inkscape.output.svg.inkscape"
   version="1.0"
   style="display:inline;enable-background:new"
   inkscape:export-filename="/home/sam/Pop-template.png">
  <title
     id="title3004">Pop Icon Theme Template</title>
  <sodipodi:namedview
     stroke="#ef2929"
     fill="#f57900"
     id="base"
     pagecolor="#6b6b6b"
     bordercolor="#000000"
     borderopacity="0.25490196"
     inkscape:pageopacity="0"
     inkscape:pageshadow="2"
     inkscape:zoom="1"
     inkscape:cx="32.954634"
     inkscape:cy="10.448727"
     inkscape:current-layer="layer6"
     showgrid="false"
     inkscape:grid-bbox="true"
     inkscape:document-units="px"
     inkscape:showpageshadow="false"
     inkscape:window-width="2560"
     inkscape:window-height="1376"
     inkscape:window-x="0"
     inkscape:window-y="27"
     width="400px"
     height="300px"
     inkscape:snap-nodes="true"
     inkscape:snap-bbox="true"
     gridtolerance="10000"
     inkscape:object-nodes="true"
     inkscape:snap-grids="true"
     showguides="true"
     inkscape:guide-bbox="true"
     inkscape:window-maximized="1"
     inkscape:bbox-paths="true"
     inkscape:snap-bbox-midpoints="true"
     inkscape:snap-global="true"
     inkscape:object-paths="true"
     inkscape:snap-intersection-paths="true"
     inkscape:snap-smooth-nodes="true"
     inkscape:document-rotation="0">
    <inkscape:grid
       spacingy="1"
       spacingx="1"
       id="grid5883"
       type="xygrid"
       enabled="true"
       visible="true"
       empspacing="4"
       snapvisiblegridlinesonly="true"
       originx="0"
       originy="0" />
    <inkscape:grid
       type="xygrid"
       id="grid11592"
       empspacing="2"
       visible="true"
       enabled="false"
       spacingx="0.5"
       spacingy="0.5"
       color="#ff0000"
       opacity="0.1254902"
       empcolor="#ff0000"
       empopacity="0.25098039"
       snapvisiblegridlinesonly="true"
       originx="0"
       originy="0" />
  </sodipodi:namedview>
  <defs
     id="defs3">
    <filter
       inkscape:collect="always"
       style="color-interpolation-filters:sRGB"
       id="filter4403"
       x="-0.024"
       width="1.048"
       y="-0.024"
       height="1.048">
      <feGaussianBlur
         inkscape:collect="always"
         stdDeviation="4.48"
         id="feGaussianBlur4405" />
    </filter>
    <filter
       inkscape:collect="always"
       style="color-interpolation-filters:sRGB"
       id="filter4451"
       x="-0.06"
       width="1.12"
       y="-0.06"
       height="1.12">
      <feGaussianBlur
         inkscape:collect="always"
         stdDeviation="5.6"
         id="feGaussianBlur4453" />
    </filter>
    <filter
       inkscape:collect="always"
       style="color-interpolation-filters:sRGB"
       id="filter4457"
       x="-0.06"
       width="1.12"
       y="-0.06"
       height="1.12">
      <feGaussianBlur
         inkscape:collect="always"
         stdDeviation="5.6"
         id="feGaussianBlur4459" />
    </filter>
    <clipPath
       clipPathUnits="userSpaceOnUse"
       id="clipPath4469">
      <path
         inkscape:connector-curvature="0"
         style="display:inline;opacity:1;fill:#0277bd;fill-opacity:1;stroke:none;stroke-width:2;stroke-linecap:round;stroke-linejoin:miter;stroke-miterlimit:4;stroke-dasharray:none;stroke-opacity:1;enable-background:new"
         d="M 527.984,-196 A 160.00318,160.00318 0 0 0 368,-35.984 160.00318,160.00318 0 0 0 527.984,124 160.00318,160.00318 0 0 0 688,-35.984 l 0,-68.592 0,-66.9344 C 688,-185.0784 677.072,-196 663.5104,-196 l -66.9344,0 -68.592,0 z"
         id="path4471" />
    </clipPath>
    <filter
       inkscape:collect="always"
       style="color-interpolation-filters:sRGB"
       id="filter4473"
       x="-0.060000759"
       width="1.1200015"
       y="-0.059999241"
       height="1.1199985">
      <feGaussianBlur
         inkscape:collect="always"
         stdDeviation="8.0001012"
         id="feGaussianBlur4475" />
    </filter>
  </defs>
  <metadata
     id="metadata4">
    <rdf:RDF>
      <cc:Work
         rdf:about="">
        <dc:format>image/svg+xml</dc:format>
        <dc:type
           rdf:resource="http://purl.org/dc/dcmitype/StillImage" />
        <dc:creator>
          <cc:Agent>
            <dc:title>Sam Hewitt</dc:title>
          </cc:Agent>
        </dc:creator>
        <dc:source />
        <cc:license
           rdf:resource="http://creativecommons.org/licenses/by-sa/3.0/" />
        <dc:title>Pop Icon Theme Template</dc:title>
        <dc:subject>
          <rdf:Bag />
        </dc:subject>
        <dc:date />
        <dc:rights>
          <cc:Agent>
            <dc:title />
          </cc:Agent>
        </dc:rights>
        <dc:publisher>
          <cc:Agent>
            <dc:title />
          </cc:Agent>
        </dc:publisher>
        <dc:identifier />
        <dc:relation />
        <dc:language />
        <dc:coverage />
        <dc:description />
        <dc:contributor>
          <cc:Agent>
            <dc:title />
          </cc:Agent>
        </dc:contributor>
      </cc:Work>
      <cc:Work
         rdf:about="">
        <dc:format>image/svg+xml</dc:format>
        <dc:type
           rdf:resource="http://purl.org/dc/dcmitype/StillImage" />
      </cc:Work>
      <cc:License
         rdf:about="http://creativecommons.org/licenses/by-sa/3.0/">
        <cc:permits
           rdf:resource="http://creativecommons.org/ns#Reproduction" />
        <cc:permits
           rdf:resource="http://creativecommons.org/ns#Distribution" />
        <cc:requires
           rdf:resource="http://creativecommons.org/ns#Notice" />
        <cc:requires
           rdf:resource="http://creativecommons.org/ns#Attribution" />
        <cc:permits
           rdf:resource="http://creativecommons.org/ns#DerivativeWorks" />
        <cc:requires
           rdf:resource="http://creativecommons.org/ns#ShareAlike" />
      </cc:License>
    </rdf:RDF>
  </metadata>
  <g
     style="display:inline"
     inkscape:groupmode="layer"
     inkscape:label="Icon"
     id="layer1"
     transform="translate(0,244)">
    <g
       style="display:none"
       inkscape:label="Baseplate"
       id="layer7"
       inkscape:groupmode="layer">
      <text
         y="337.74512"
         xml:space="preserve"
         x="15.006836"
         style="font-style:normal;font-variant:normal;font-weight:normal;font-stretch:normal;line-height:0%;font-family:'DejaVu Sans';-inkscape-font-specification:'DejaVu Sans';display:inline;fill:#000000;fill-opacity:1;stroke:none;enable-background:new"
         inkscape:label="context"
         id="context"><tspan
           style="font-style:normal;font-variant:normal;font-weight:normal;font-stretch:normal;font-size:18px;line-height:1.25;font-family:'DejaVu Sans';-inkscape-font-specification:'DejaVu Sans'"
           y="337.74512"
           x="15.006836"
           sodipodi:role="line"
           id="tspan3933">places</tspan></text>
      <text
         y="337.74512"
         xml:space="preserve"
         x="142.48828"
         style="font-style:normal;font-variant:normal;font-weight:bold;font-stretch:normal;line-height:0%;font-family:'DejaVu Sans';-inkscape-font-specification:'DejaVu Sans Bold';text-align:start;writing-mode:lr-tb;text-anchor:start;display:inline;fill:#000000;fill-opacity:1;stroke:none;enable-background:new"
         inkscape:label="icon-name"
         id="icon-name"><tspan
           style="font-style:normal;font-variant:normal;font-weight:bold;font-stretch:normal;font-size:18px;line-height:1.25;font-family:'DejaVu Sans';-inkscape-font-specification:'DejaVu Sans Bold'"
           y="337.74512"
           x="142.48828"
           sodipodi:role="line"
           id="tspan3937">distributor-logo-korora</tspan></text>
      <rect
         style="display:inline;overflow:visible;visibility:visible;fill:#d3d7cf;fill-opacity:1;fill-rule:nonzero;stroke:none;stroke-width:2;marker:none;enable-background:accumulate"
         id="rect16x16"
         width="16"
         height="16"
         x="-32"
         y="268"
         inkscape:label="16x16"
         transform="scale(-1,1)" />
      <rect
         style="display:inline;overflow:visible;visibility:visible;fill:#d3d7cf;fill-opacity:1;fill-rule:nonzero;stroke:none;stroke-width:2;marker:none;enable-background:accumulate"
         id="rect24x24"
         width="24"
         height="24"
         x="-76"
         y="260"
         inkscape:label="24x24"
         transform="scale(-1,1)" />
      <rect
         style="display:inline;overflow:visible;visibility:visible;fill:#d3d7cf;fill-opacity:1;fill-rule:nonzero;stroke:none;stroke-width:2;marker:none;enable-background:accumulate"
         id="rect32x32"
         width="32"
         height="32"
         x="-128"
         y="252"
         inkscape:label="32x32"
         transform="scale(-1,1)" />
      <rect
         inkscape:label="48x48"
         y="236"
         x="-192"
         height="48"
         width="48"
         id="rect48x48"
         style="display:inline;overflow:visible;visibility:visible;fill:#d3d7cf;fill-opacity:1;fill-rule:nonzero;stroke:none;stroke-width:2;marker:none;enable-background:accumulate"
         transform="scale(-1,1)" />
      <rect
         style="display:inline;overflow:visible;visibility:visible;fill:#d3d7cf;fill-opacity:1;fill-rule:nonzero;stroke:none;stroke-width:1;marker:none;enable-background:accumulate"
         id="rect3951"
         width="256"
         height="256"
         x="-464"
         y="28"
         inkscape:label="48x48"
         transform="scale(-1,1)" />
    </g>
    <g
       inkscape:groupmode="layer"
       id="layer6"
       inkscape:label="Symbols"
       style="display:inline">
      <path
         inkscape:connector-curvature="0"
         style="display:inline;opacity:0.1;fill:#000000;fill-opacity:1;stroke:none;stroke-width:2;stroke-linecap:round;stroke-linejoin:miter;stroke-miterlimit:4;stroke-dasharray:none;stroke-opacity:1;filter:url(#filter4403);enable-background:new"
         d="M 527.98438,-192 A 160.00318,160.00318 0 0 0 370.7793,-61.19727 160.00318,160.00318 0 0 0 240,95.98438 v 68.59179 66.9336 C 240,245.07729 250.92261,256 264.49023,256 h 76.72266 58.80273 A 160.00318,160.00318 0 0 0 557.2207,125.19727 160.00318,160.00318 0 0 0 688,-31.98438 v -68.59179 -66.9336 C 688,-181.07777 677.07137,-192 663.50977,-192 h -66.9336 z"
         id="path4407"
         transform="matrix(0.5,0,0,0.5,104,142)" />
      <path
         id="path4401"
         d="M 527.98438,-192 A 160.00318,160.00318 0 0 0 370.7793,-61.19727 160.00318,160.00318 0 0 0 240,95.98438 v 68.59179 66.9336 C 240,245.07729 250.92261,256 264.49023,256 h 76.72266 58.80273 A 160.00318,160.00318 0 0 0 557.2207,125.19727 160.00318,160.00318 0 0 0 688,-31.98438 v -68.59179 -66.9336 C 688,-181.07777 677.07137,-192 663.50977,-192 h -66.9336 z"
         style="display:inline;opacity:0.2;fill:#000000;fill-opacity:1;stroke:none;stroke-width:2;stroke-linecap:round;stroke-linejoin:miter;stroke-miterlimit:4;stroke-dasharray:none;stroke-opacity:1;filter:url(#filter4403);enable-background:new"
         inkscape:connector-curvature="0"
         transform="matrix(0.5,0,0,0.5,104,142)" />
      <path
         style="display:inline;opacity:0.2;fill:#000000;fill-opacity:1;stroke:none;stroke-width:1;stroke-linecap:round;stroke-linejoin:miter;stroke-miterlimit:4;stroke-dasharray:none;stroke-opacity:1;enable-background:new"
         d="M 367.99219,45 A 80.00159,80.00159 0 0 0 289.38965,110.40137 80.00159,80.00159 0 0 0 224,188.99219 v 34.29589 33.4668 C 224,263.53864 229.4613,269 236.24511,269 h 38.36133 29.40137 A 80.00159,80.00159 0 0 0 382.61035,203.59863 80.00159,80.00159 0 0 0 448,125.00781 V 90.711915 57.245117 C 448,50.461117 442.53569,45 435.75489,45 h -33.4668 z"
         id="path4394"
         inkscape:connector-curvature="0" />
      <path
         inkscape:connector-curvature="0"
         id="path4368"
         d="m 174,241 a 14,14 0 0 0 -14,14 14,14 0 0 0 14,14 14,14 0 0 0 14,-14 l 0,-6 0,-6 c 0,-1.108 -0.892,-2 -2,-2 l -6,0 -6,0 z"
         style="display:inline;opacity:0.2;fill:#000000;fill-opacity:1;stroke:none;stroke-width:2;stroke-linecap:round;stroke-linejoin:miter;stroke-miterlimit:4;stroke-dasharray:none;stroke-opacity:1;enable-background:new" />
      <path
         inkscape:connector-curvature="0"
         id="path4370"
         d="m 162,253 a 14,14 0 0 0 -14,14 l 0,6 0,6 c 0,1.108 0.892,2 2,2 l 7,0 5,0 a 14,14 0 0 0 14,-14 14,14 0 0 0 -14,-14 z"
         style="display:inline;opacity:0.2;fill:#000000;fill-opacity:1;stroke:none;stroke-width:2;stroke-linecap:round;stroke-linejoin:miter;stroke-miterlimit:4;stroke-dasharray:none;stroke-opacity:1;enable-background:new" />
      <path
         inkscape:connector-curvature="0"
         id="path4372"
         d="m 67,263 a 7,7 0 0 0 -7,7 7,7 0 0 0 7,7 7,7 0 0 0 7,-7 l 0,-3 0,-3 c 0,-0.554 -0.446,-1 -1,-1 l -3,0 -3,0 z"
         style="display:inline;opacity:0.2;fill:#000000;fill-opacity:1;stroke:none;stroke-width:2;stroke-linecap:round;stroke-linejoin:miter;stroke-miterlimit:4;stroke-dasharray:none;stroke-opacity:1;enable-background:new" />
      <path
         inkscape:connector-curvature="0"
         id="path4374"
         d="m 61,269 a 7,7 0 0 0 -7,7 l 0,3 0,3 c 0,0.554 0.446,1 1,1 l 3.5,0 2.5,0 a 7,7 0 0 0 7,-7 7,7 0 0 0 -7,-7 z"
         style="display:inline;opacity:0.2;fill:#000000;fill-opacity:1;stroke:none;stroke-width:2;stroke-linecap:round;stroke-linejoin:miter;stroke-miterlimit:4;stroke-dasharray:none;stroke-opacity:1;enable-background:new" />
      <path
         id="path4376"
         d="M 115.999,255 A 10.000199,10.000199 0 0 0 106,265.001 10.000199,10.000199 0 0 0 115.999,275 10.000199,10.000199 0 0 0 126,265.001 l 0,-4.287 0,-4.1834 C 126,255.6826 125.317,255 124.4694,255 l -4.1834,0 -4.287,0 z"
         style="display:inline;opacity:0.2;fill:#000000;fill-opacity:1;stroke:none;stroke-width:2;stroke-linecap:round;stroke-linejoin:miter;stroke-miterlimit:4;stroke-dasharray:none;stroke-opacity:1;enable-background:new"
         inkscape:connector-curvature="0" />
      <path
         id="path4378"
         d="M 108.00099,263 A 10.000199,10.000199 0 0 0 98,272.99901 l 0,4.28699 0,4.18336 C 98,282.31733 98.682667,283 99.530643,283 l 4.795217,0 3.67513,0 A 10.000199,10.000199 0 0 0 118,272.99901 10.000199,10.000199 0 0 0 108.00099,263 Z"
         style="display:inline;opacity:0.2;fill:#000000;fill-opacity:1;stroke:none;stroke-width:2;stroke-linecap:round;stroke-linejoin:miter;stroke-miterlimit:4;stroke-dasharray:none;stroke-opacity:1;enable-background:new"
         inkscape:connector-curvature="0" />
      <path
         id="path4336"
         d="M 367.992,44 A 80.00159,80.00159 0 0 0 288,124.008 80.00159,80.00159 0 0 0 367.992,204 80.00159,80.00159 0 0 0 448,124.008 V 89.712 56.2448 C 448,49.4608 442.536,44 435.7552,44 H 402.288 Z"
         style="display:inline;opacity:1;fill:#666666;fill-opacity:1;stroke:none;stroke-width:1;stroke-linecap:round;stroke-linejoin:miter;stroke-miterlimit:4;stroke-dasharray:none;stroke-opacity:1;enable-background:new"
         inkscape:connector-curvature="0" />
      <path
         inkscape:connector-curvature="0"
         style="opacity:0.2;fill:#000000;fill-opacity:1;stroke:none;stroke-width:2;stroke-linecap:round;stroke-linejoin:miter;stroke-miterlimit:4;stroke-dasharray:none;stroke-opacity:1;filter:url(#filter4457)"
         d="M 528,84 C 590.048,84 640,34.048 640,-28 V -140 H 528 c -62.048,0 -112,49.952 -112,112 0,62.048 49.952,112 112,112 z"
         id="path4455"
         transform="matrix(0.5,0,0,0.5,104,142)" />
      <path
         id="path4439"
         d="m 368,180 c 31.024,0 56,-24.976 56,-56 V 68 h -56 c -31.024,0 -56,24.976 -56,56 0,31.024 24.976,56 56,56 z"
         style="opacity:1;fill:#f2f2f2;fill-opacity:1;stroke:none;stroke-width:1;stroke-linecap:round;stroke-linejoin:miter;stroke-miterlimit:4;stroke-dasharray:none;stroke-opacity:1"
         inkscape:connector-curvature="0" />
      <path
         style="display:inline;opacity:1;fill:#666666;fill-opacity:1;stroke:none;stroke-width:2;stroke-linecap:round;stroke-linejoin:miter;stroke-miterlimit:4;stroke-dasharray:none;stroke-opacity:1;enable-background:new"
         d="M 174 484 A 14 14 0 0 0 160 498 A 14 14 0 0 0 174 512 A 14 14 0 0 0 188 498 L 188 492 L 188 486 C 188 484.892 187.108 484 186 484 L 180 484 L 174 484 z "
         id="circle4170"
         transform="translate(0,-244)" />
      <path
         inkscape:connector-curvature="0"
         style="opacity:0.2;fill:#000000;fill-opacity:1;stroke:none;stroke-width:2;stroke-linecap:round;stroke-linejoin:miter;stroke-miterlimit:4;stroke-dasharray:none;stroke-opacity:1"
         d="m 174,265 c 5.54,0 10,-4.46 10,-10 l 0,-10 -10,0 c -5.54,0 -10,4.46 -10,10 0,5.54 4.46,10 10,10 z"
         id="path4421" />
      <path
         id="path4417"
         d="m 174,264 c 5.54,0 10,-4.46 10,-10 l 0,-10 -10,0 c -5.54,0 -10,4.46 -10,10 0,5.54 4.46,10 10,10 z"
         style="opacity:1;fill:#ececec;fill-opacity:1;stroke:none;stroke-width:2;stroke-linecap:round;stroke-linejoin:miter;stroke-miterlimit:4;stroke-dasharray:none;stroke-opacity:1"
         inkscape:connector-curvature="0" />
      <path
         style="display:inline;opacity:1;fill:#808080;fill-opacity:1;stroke:none;stroke-width:2;stroke-linecap:round;stroke-linejoin:miter;stroke-miterlimit:4;stroke-dasharray:none;stroke-opacity:1;enable-background:new"
         d="M 162 496 A 14 14 0 0 0 148 510 L 148 516 L 148 522 C 148 523.108 148.892 524 150 524 L 157 524 L 162 524 A 14 14 0 0 0 176 510 A 14 14 0 0 0 162 496 z "
         transform="translate(0,-244)"
         id="path4147" />
      <path
         style="display:inline;opacity:1;fill:#666666;fill-opacity:1;stroke:none;stroke-width:2;stroke-linecap:round;stroke-linejoin:miter;stroke-miterlimit:4;stroke-dasharray:none;stroke-opacity:1;enable-background:new"
         d="M 67 506 A 7 7 0 0 0 60 513 A 7 7 0 0 0 67 520 A 7 7 0 0 0 74 513 L 74 510 L 74 507 C 74 506.446 73.554 506 73 506 L 70 506 L 67 506 z "
         id="circle4180"
         transform="translate(0,-244)" />
      <path
         id="path4429"
         d="m 67,275 c 2.77,0 5,-2.23 5,-5 l 0,-5 -5,0 c -2.77,0 -5,2.23 -5,5 0,2.77 2.23,5 5,5 z"
         style="opacity:0.2;fill:#000000;fill-opacity:1;stroke:none;stroke-width:2;stroke-linecap:round;stroke-linejoin:miter;stroke-miterlimit:4;stroke-dasharray:none;stroke-opacity:1"
         inkscape:connector-curvature="0" />
      <path
         inkscape:connector-curvature="0"
         style="opacity:1;fill:#ececec;fill-opacity:1;stroke:none;stroke-width:2;stroke-linecap:round;stroke-linejoin:miter;stroke-miterlimit:4;stroke-dasharray:none;stroke-opacity:1"
         d="m 67,274 c 2.77,0 5,-2.23 5,-5 l 0,-5 -5,0 c -2.77,0 -5,2.23 -5,5 0,2.77 2.23,5 5,5 z"
         id="path4425" />
      <path
         style="display:inline;opacity:1;fill:#808080;fill-opacity:1;stroke:none;stroke-width:2;stroke-linecap:round;stroke-linejoin:miter;stroke-miterlimit:4;stroke-dasharray:none;stroke-opacity:1;enable-background:new"
         d="M 61 512 A 7 7 0 0 0 54 519 L 54 522 L 54 525 C 54 525.554 54.446 526 55 526 L 58.5 526 L 61 526 A 7 7 0 0 0 68 519 A 7 7 0 0 0 61 512 z "
         transform="translate(0,-244)"
         id="circle4190" />
      <path
         inkscape:connector-curvature="0"
         style="display:inline;opacity:1;fill:#666666;fill-opacity:1;stroke:none;stroke-width:2;stroke-linecap:round;stroke-linejoin:miter;stroke-miterlimit:4;stroke-dasharray:none;stroke-opacity:1;enable-background:new"
         d="M 115.999,254 A 10.000199,10.000199 0 0 0 106,264.001 10.000199,10.000199 0 0 0 115.999,274 10.000199,10.000199 0 0 0 126,264.001 l 0,-4.287 0,-4.1834 C 126,254.6826 125.317,254 124.4694,254 l -4.1834,0 -4.287,0 z"
         id="circle4214" />
      <path
         id="path4435"
         d="m 116,272 c 3.878,0 7,-3.122 7,-7 l 0,-7 -7,0 c -3.878,0 -7,3.122 -7,7 0,3.878 3.122,7 7,7 z"
         style="opacity:0.2;fill:#000000;fill-opacity:1;stroke:none;stroke-width:2;stroke-linecap:round;stroke-linejoin:miter;stroke-miterlimit:4;stroke-dasharray:none;stroke-opacity:1"
         inkscape:connector-curvature="0" />
      <path
         inkscape:connector-curvature="0"
         style="opacity:1;fill:#ececec;fill-opacity:1;stroke:none;stroke-width:2;stroke-linecap:round;stroke-linejoin:miter;stroke-miterlimit:4;stroke-dasharray:none;stroke-opacity:1"
         d="m 116,271 c 3.878,0 7,-3.122 7,-7 l 0,-7 -7,0 c -3.878,0 -7,3.122 -7,7 0,3.878 3.122,7 7,7 z"
         id="path4433" />
      <path
         inkscape:connector-curvature="0"
         style="display:inline;opacity:1;fill:#808080;fill-opacity:1;stroke:none;stroke-width:2;stroke-linecap:round;stroke-linejoin:miter;stroke-miterlimit:4;stroke-dasharray:none;stroke-opacity:1;enable-background:new"
         d="M 108.00099,262 A 10.000199,10.000199 0 0 0 98,271.99901 l 0,4.28699 0,4.18336 C 98,281.31733 98.682667,282 99.530643,282 l 4.795217,0 3.67513,0 A 10.000199,10.000199 0 0 0 118,271.99901 10.000199,10.000199 0 0 0 108.00099,262 Z"
         id="circle4224" />
      <path
         style="display:inline;opacity:1;fill:#666666;fill-opacity:1;stroke:none;stroke-width:2;stroke-linecap:round;stroke-linejoin:miter;stroke-miterlimit:4;stroke-dasharray:none;stroke-opacity:1;enable-background:new"
         d="m 26.000001,267.9285 a 6.0004183,6.0004183 0 0 0 -6.000001,6 6.0004183,6.0004183 0 0 0 6.000001,6 6.0004183,6.0004183 0 0 0 5.999999,-6 L 32,271.35647 32,269 c 0,-0.59361 -0.47789,-1.0715 -1.071503,-1.0715 l -2.356471,0 -2.572025,0 z"
         id="circle4236"
         inkscape:connector-curvature="0" />
      <path
         id="path4461"
         d="m 26,278 c 2.216,0 4,-1.784 4,-4 l 0,-4 -4,0 c -2.216,0 -4,1.784 -4,4 0,2.216 1.784,4 4,4 z"
         style="opacity:1;fill:#ececec;fill-opacity:1;stroke:none;stroke-width:2;stroke-linecap:round;stroke-linejoin:miter;stroke-miterlimit:4;stroke-dasharray:none;stroke-opacity:1"
         inkscape:connector-curvature="0" />
      <path
         style="display:inline;opacity:1;fill:#808080;fill-opacity:1;stroke:none;stroke-width:2;stroke-linecap:round;stroke-linejoin:miter;stroke-miterlimit:4;stroke-dasharray:none;stroke-opacity:1;enable-background:new"
         d="M 21.999999,272 A 6.0004183,6.0004183 0 0 0 16,278 l 0,2.57203 0,2.56993 C 16,283.61685 16.383149,284 16.858039,284 l 2.569935,0 2.572025,0 A 6.0004183,6.0004183 0 0 0 28,278 6.0004183,6.0004183 0 0 0 21.999999,272 Z"
         id="circle4246"
         inkscape:connector-curvature="0" />
      <path
         style="display:inline;opacity:0.2;fill:#ffffff;fill-opacity:1;stroke:none;stroke-width:2;stroke-linecap:round;stroke-linejoin:miter;stroke-miterlimit:4;stroke-dasharray:none;stroke-opacity:1;enable-background:new"
         d="M 174 484 A 14 14 0 0 0 160 498 A 14 14 0 0 0 160.02148 498.41406 A 14 14 0 0 1 174 485 L 180 485 L 186 485 C 187.108 485 188 485.892 188 487 L 188 486 C 188 484.892 187.108 484 186 484 L 180 484 L 174 484 z "
         transform="translate(0,-244)"
         id="path4344" />
      <path
         style="display:inline;opacity:0.2;fill:#ffffff;fill-opacity:1;stroke:none;stroke-width:2;stroke-linecap:round;stroke-linejoin:miter;stroke-miterlimit:4;stroke-dasharray:none;stroke-opacity:1;enable-background:new"
         d="M 162 496 A 14 14 0 0 0 148 510 L 148 511 A 14 14 0 0 1 162 497 A 14 14 0 0 1 175.97852 510.58594 A 14 14 0 0 0 176 510 A 14 14 0 0 0 162 496 z "
         transform="translate(0,-244)"
         id="path4346" />
      <path
         style="display:inline;opacity:0.2;fill:#ffffff;fill-opacity:1;stroke:none;stroke-width:2;stroke-linecap:round;stroke-linejoin:miter;stroke-miterlimit:4;stroke-dasharray:none;stroke-opacity:1;enable-background:new"
         d="M 67 506 A 7 7 0 0 0 60 513 A 7 7 0 0 0 60.023438 513.45898 A 7 7 0 0 1 67 507 L 70 507 L 73 507 C 73.554 507 74 507.446 74 508 L 74 507 C 74 506.446 73.554 506 73 506 L 70 506 L 67 506 z "
         transform="translate(0,-244)"
         id="path4348" />
      <path
         inkscape:connector-curvature="0"
         style="opacity:0.2;fill:#000000;fill-opacity:1;stroke:none;stroke-width:2;stroke-linecap:round;stroke-linejoin:miter;stroke-miterlimit:4;stroke-dasharray:none;stroke-opacity:1"
         d="m 61,271 c -2.77,0 -5,2.23 -5,5 l 0,5 5,0 c 2.77,0 5,-2.23 5,-5 0,-2.77 -2.23,-5 -5,-5 z"
         id="path4427" />
      <path
         style="display:inline;opacity:0.2;fill:#ffffff;fill-opacity:1;stroke:none;stroke-width:2;stroke-linecap:round;stroke-linejoin:miter;stroke-miterlimit:4;stroke-dasharray:none;stroke-opacity:1;enable-background:new"
         d="M 61 512 A 7 7 0 0 0 54 519 L 54 520 A 7 7 0 0 1 61 513 A 7 7 0 0 1 67.976562 519.54102 A 7 7 0 0 0 68 519 A 7 7 0 0 0 61 512 z "
         transform="translate(0,-244)"
         id="path4350" />
      <path
         style="display:inline;opacity:0.2;fill:#ffffff;fill-opacity:1;stroke:none;stroke-width:2;stroke-linecap:round;stroke-linejoin:miter;stroke-miterlimit:4;stroke-dasharray:none;stroke-opacity:1;enable-background:new"
         d="M 115.99805 498 A 10.000199 10.000199 0 0 0 106 508.00195 A 10.000199 10.000199 0 0 0 106.02148 508.41602 A 10.000199 10.000199 0 0 1 115.99805 499 L 120.28516 499 L 124.46875 499 C 125.31635 499 126 499.68325 126 500.53125 L 126 499.53125 C 126 498.68325 125.31635 498 124.46875 498 L 120.28516 498 L 115.99805 498 z "
         transform="translate(0,-244)"
         id="path4352" />
      <path
         inkscape:connector-curvature="0"
         style="opacity:0.2;fill:#000000;fill-opacity:1;stroke:none;stroke-width:2;stroke-linecap:round;stroke-linejoin:miter;stroke-miterlimit:4;stroke-dasharray:none;stroke-opacity:1"
         d="m 108,266 c -3.878,0 -7,3.122 -7,7 l 0,7 7,0 c 3.878,0 7,-3.122 7,-7 0,-3.878 -3.122,-7 -7,-7 z"
         id="path4437" />
      <path
         style="display:inline;opacity:0.2;fill:#ffffff;fill-opacity:1;stroke:none;stroke-width:2;stroke-linecap:round;stroke-linejoin:miter;stroke-miterlimit:4;stroke-dasharray:none;stroke-opacity:1;enable-background:new"
         d="M 108.00195 506 A 10.000199 10.000199 0 0 0 98 515.99805 L 98 516.99805 A 10.000199 10.000199 0 0 1 108.00195 507 A 10.000199 10.000199 0 0 1 117.97852 516.58398 A 10.000199 10.000199 0 0 0 118 515.99805 A 10.000199 10.000199 0 0 0 108.00195 506 z "
         transform="translate(0,-244)"
         id="path4354" />
      <path
         style="display:inline;opacity:0.2;fill:#ffffff;fill-opacity:1;stroke:none;stroke-width:1;stroke-linecap:round;stroke-linejoin:miter;stroke-miterlimit:4;stroke-dasharray:none;stroke-opacity:1;enable-background:new"
         d="M 367.99219,44 A 80.00159,80.00159 0 0 0 288,124.00781 a 80.00159,80.00159 0 0 0 0.0205,0.41407 A 80.00159,80.00159 0 0 1 367.99219,45 h 34.2959 33.4668 C 442.53569,45 448,50.461117 448,57.245117 v -1 C 448,49.461117 442.53569,44 435.75489,44 h -33.4668 z"
         id="path4386"
         inkscape:connector-curvature="0" />
      <path
         inkscape:connector-curvature="0"
         style="display:inline;opacity:0.5;fill:#000000;fill-opacity:1;stroke:none;stroke-width:2;stroke-linecap:round;stroke-linejoin:miter;stroke-miterlimit:4;stroke-dasharray:none;stroke-opacity:1;filter:url(#filter4473);enable-background:new"
         d="M 400.01584,-62 C 311.65101,-62.006992 240.0105,9.6193275 240,97.98416 v 68.59184 66.93376 c 0,13.56752 10.92728,24.8438 24.49029,24.49024 h 76.72347 58.80208 C 488.38067,257.9895 560.00699,186.34899 560,97.98416 559.9895,9.6316987 488.3683,-61.989498 400.01584,-62 Z"
         id="path4465"
         clip-path="url(#clipPath4469)"
         sodipodi:nodetypes="cccsscccc"
         transform="matrix(0.5,0,0,0.5,104,142)" />
      <path
         id="path4338"
         d="M 304.00792,108 A 80.00159,80.00159 0 0 0 224,187.99208 V 222.288 255.75488 C 224,262.53864 229.46134,268 236.24514,268 h 38.36174 29.40104 A 80.00159,80.00159 0 0 0 384,187.99208 80.00159,80.00159 0 0 0 304.00792,108 Z"
         style="display:inline;opacity:1;fill:#808080;fill-opacity:1;stroke:none;stroke-width:1;stroke-linecap:round;stroke-linejoin:miter;stroke-miterlimit:4;stroke-dasharray:none;stroke-opacity:1;enable-background:new"
         inkscape:connector-curvature="0" />
      <path
         style="display:inline;opacity:0.2;fill:#ffffff;fill-opacity:1;stroke:none;stroke-width:1;stroke-linecap:round;stroke-linejoin:miter;stroke-miterlimit:4;stroke-dasharray:none;stroke-opacity:1;enable-background:new"
         d="M 304.00781,108 A 80.00159,80.00159 0 0 0 224,187.99219 v 1 A 80.00159,80.00159 0 0 1 304.00781,109 80.00159,80.00159 0 0 1 383.97949,188.57812 80.00159,80.00159 0 0 0 384,187.99219 80.00159,80.00159 0 0 0 304.00781,108 Z"
         id="path4388"
         inkscape:connector-curvature="0" />
      <path
         id="path4419"
         d="m 162,257 c -5.54,0 -10,4.46 -10,10 l 0,10 10,0 c 5.54,0 10,-4.46 10,-10 0,-5.54 -4.46,-10 -10,-10 z"
         style="opacity:0.2;fill:#000000;fill-opacity:1;stroke:none;stroke-width:2;stroke-linecap:round;stroke-linejoin:miter;stroke-miterlimit:4;stroke-dasharray:none;stroke-opacity:1"
         inkscape:connector-curvature="0" />
      <path
         style="opacity:1;fill:#ffffff;fill-opacity:1;stroke:none;stroke-width:2;stroke-linecap:round;stroke-linejoin:miter;stroke-miterlimit:4;stroke-dasharray:none;stroke-opacity:1"
         d="M 162 500 C 156.46 500 152 504.46 152 510 L 152 520 L 162 520 C 167.54 520 172 515.54 172 510 C 172 504.46 167.54 500 162 500 z "
         id="rect4409"
         transform="translate(0,-244)" />
      <path
         id="path4423"
         d="m 61,270 c -2.77,0 -5,2.23 -5,5 l 0,5 5,0 c 2.77,0 5,-2.23 5,-5 0,-2.77 -2.23,-5 -5,-5 z"
         style="opacity:1;fill:#ffffff;fill-opacity:1;stroke:none;stroke-width:2;stroke-linecap:round;stroke-linejoin:miter;stroke-miterlimit:4;stroke-dasharray:none;stroke-opacity:1"
         inkscape:connector-curvature="0" />
      <path
         id="path4431"
         d="m 108,265 c -3.878,0 -7,3.122 -7,7 l 0,7 7,0 c 3.878,0 7,-3.122 7,-7 0,-3.878 -3.122,-7 -7,-7 z"
         style="opacity:1;fill:#ffffff;fill-opacity:1;stroke:none;stroke-width:2;stroke-linecap:round;stroke-linejoin:miter;stroke-miterlimit:4;stroke-dasharray:none;stroke-opacity:1"
         inkscape:connector-curvature="0" />
      <path
         id="path4449"
         d="M 400,-12 C 337.952,-12 288,37.952 288,100 V 212 H 400 C 462.048,212 512,162.048 512,100 512,37.952 462.048,-12 400,-12 Z"
         style="opacity:0.2;fill:#000000;fill-opacity:1;stroke:none;stroke-width:2;stroke-linecap:round;stroke-linejoin:miter;stroke-miterlimit:4;stroke-dasharray:none;stroke-opacity:1;filter:url(#filter4451)"
         inkscape:connector-curvature="0"
         transform="matrix(0.5,0,0,0.5,104,142)" />
      <path
         inkscape:connector-curvature="0"
         style="opacity:1;fill:#ffffff;fill-opacity:1;stroke:none;stroke-width:1;stroke-linecap:round;stroke-linejoin:miter;stroke-miterlimit:4;stroke-dasharray:none;stroke-opacity:1"
         d="m 304,132 c -31.024,0 -56,24.976 -56,56 v 56 h 56 c 31.024,0 56,-24.976 56,-56 0,-31.024 -24.976,-56 -56,-56 z"
         id="path4441" />
      <path
         inkscape:connector-curvature="0"
         style="opacity:1;fill:#ffffff;fill-opacity:1;stroke:none;stroke-width:2;stroke-linecap:round;stroke-linejoin:miter;stroke-miterlimit:4;stroke-dasharray:none;stroke-opacity:1"
         d="m 22,274 c -2.216,0 -4,1.784 -4,4 l 0,4 4,0 c 2.216,0 4,-1.784 4,-4 0,-2.216 -1.784,-4 -4,-4 z"
         id="path4463" />
    </g>
  </g>
</svg>
